<svg width="48" height="48" viewBox="0 0 48 48" fill="none" xmlns="http://www.w3.org/2000/svg">
<path d="M39 33.5C40.5 36.5 34.5 40 24 40C13.5 40 7.50001 36.5 9.00001 33.5C10.5 30.5 15.7157 27 24 27C32.2843 27 37.5 30.5 39 33.5Z" fill="#A300CC" stroke="#A300CC" stroke-width="3"/>
<path d="M12.5121 14.2489L15.2012 31.3075C15.2718 31.7558 15.4957 32.1664 15.8892 32.3926C16.9025 32.975 19.3467 34 24 34C28.6533 34 31.0975 32.975 32.1108 32.3926C32.5043 32.1664 32.7282 31.7558 32.7988 31.3075L35.4879 14.2489C35.7213 12.7677 34.2904 11.5242 32.8307 11.8673C30.5324 12.4073 27.2662 13 24 13C20.7338 13 17.4676 12.4073 15.1693 11.8673C13.7096 11.5242 12.2787 12.7677 12.5121 14.2489Z" fill="#CC00FF" stroke="#CC00FF" stroke-width="4" stroke-linecap="round"/>
<mask id="mask0_419_945" style="mask-type:alpha" maskUnits="userSpaceOnUse" x="10" y="9" width="28" height="27">
<path d="M12.5121 14.2489L15.2012 31.3075C15.2718 31.7558 15.4957 32.1664 15.8892 32.3926C16.9025 32.975 19.3467 34 24 34C28.6533 34 31.0975 32.975 32.1108 32.3926C32.5043 32.1664 32.7282 31.7558 32.7988 31.3075L35.4879 14.2489C35.7213 12.7677 34.2904 11.5242 32.8307 11.8673C30.5324 12.4073 27.2662 13 24 13C20.7338 13 17.4676 12.4073 15.1693 11.8673C13.7096 11.5242 12.2787 12.7677 12.5121 14.2489Z" fill="#CC00FF" stroke="#CC00FF" stroke-width="4" stroke-linecap="round"/>
</mask>
<g mask="url(#mask0_419_945)">
<path d="M30.5621 17.5345C30.8843 16.6639 32.1157 16.6639 32.4379 17.5345L32.5558 17.8533C32.6571 18.1271 32.8729 18.3429 33.1466 18.4442L33.4655 18.5621C34.3361 18.8843 34.3361 20.1157 33.4655 20.4379L33.1466 20.5558C32.8729 20.6571 32.6571 20.8729 32.5558 21.1466L32.4379 21.4655C32.1157 22.3361 30.8843 22.3361 30.5621 21.4655L30.4442 21.1466C30.3429 20.8729 30.1271 20.6571 29.8534 20.5558L29.5345 20.4379C28.6639 20.1157 28.6639 18.8843 29.5345 18.5621L29.8533 18.4442C30.1271 18.3429 30.3429 18.1271 30.4442 17.8534L30.5621 17.5345Z" fill="#EEAAFF"/>
<path d="M14.5621 13.5345C14.8843 12.6639 16.1157 12.6639 16.4379 13.5345L16.5558 13.8533C16.6571 14.1271 16.8729 14.3429 17.1466 14.4442L17.4655 14.5621C18.3361 14.8843 18.3361 16.1157 17.4655 16.4379L17.1466 16.5558C16.8729 16.6571 16.6571 16.8729 16.5558 17.1466L16.4379 17.4655C16.1157 18.3361 14.8843 18.3361 14.5621 17.4655L14.4442 17.1466C14.3429 16.8729 14.1271 16.6571 13.8534 16.5558L13.5345 16.4379C12.6639 16.1157 12.6639 14.8843 13.5345 14.5621L13.8533 14.4442C14.1271 14.3429 14.3429 14.1271 14.4442 13.8534L14.5621 13.5345Z" fill="#EEAAFF"/>
<path d="M19.5311 21.2673C19.6922 20.8319 20.3078 20.8319 20.4689 21.2673L20.7305 21.9741C20.7811 22.111 20.889 22.2189 21.0259 22.2695L21.7327 22.5311C22.1681 22.6922 22.1681 23.3078 21.7327 23.4689L21.0259 23.7305C20.889 23.7811 20.7811 23.889 20.7305 24.0259L20.4689 24.7327C20.3078 25.1681 19.6922 25.1681 19.5311 24.7327L19.2695 24.0259C19.2189 23.889 19.111 23.7811 18.9741 23.7305L18.2673 23.4689C17.8319 23.3078 17.8319 22.6922 18.2673 22.5311L18.9741 22.2695C19.111 22.2189 19.2189 22.111 19.2695 21.9741L19.5311 21.2673Z" fill="#EEAAFF"/>
<path d="M24 34C17.8854 34 14.533 32.6742 13.0169 31.8289C12.3073 31.4332 12 31.1429 12 31.1429V29.8829V29.0507V29C12 29 13.567 30.4806 17.7935 31.3102C19.4382 31.6329 21.4856 31.8571 24 31.8571C26.5144 31.8571 28.5618 31.6329 30.2065 31.3102C34.433 30.4806 36 29 36 29V29.0507V29.8829V31.1429C36 31.1429 35.6927 31.4332 34.9831 31.8289C33.467 32.6742 30.1146 34 24 34Z" fill="#EEAAFF"/>
<path d="M13.0169 31.8289C14.533 32.6742 17.8854 34 24 34C30.1146 34 33.467 32.6742 34.9831 31.8289M13.0169 31.8289C12.3339 31.448 12 30.6856 12 29.8829M13.0169 31.8289C12.3073 31.4332 12 31.1429 12 31.1429V29.8829M12 29.8829V29.0507M12 29.0507C12 31.5671 15.4348 30.8472 17.7935 31.3102M12 29.0507V29C12 29 13.567 30.4806 17.7935 31.3102M17.7935 31.3102C19.4382 31.6329 21.4856 31.8571 24 31.8571C26.5144 31.8571 28.5618 31.6329 30.2065 31.3102M30.2065 31.3102C32.5652 30.8472 36 31.5671 36 29.0507M30.2065 31.3102C34.433 30.4806 36 29 36 29V29.0507M36 29.0507V29.8829M36 29.8829C36 30.6856 35.6661 31.448 34.9831 31.8289M36 29.8829V31.1429C36 31.1429 35.6927 31.4332 34.9831 31.8289" stroke="#EEAAFF" stroke-width="4" stroke-linecap="round"/>
</g>
</svg>
