<svg width="48" height="48" viewBox="0 0 48 48" fill="none" xmlns="http://www.w3.org/2000/svg">
<path d="M21.8536 9.19819C23.0306 7.99273 24.9694 7.99273 26.1464 9.19819L28.0467 11.1443C28.6199 11.7313 29.4085 12.0579 30.2289 12.0482L32.9487 12.0158C34.6334 11.9957 36.0043 13.3666 35.9842 15.0513L35.9518 17.7711C35.9421 18.5915 36.2687 19.3801 36.8557 19.9533L38.8018 21.8536C40.0073 23.0306 40.0073 24.9694 38.8018 26.1464L36.8557 28.0467C36.2687 28.6199 35.9421 29.4085 35.9518 30.2289L35.9842 32.9487C36.0043 34.6334 34.6334 36.0043 32.9487 35.9842L30.2289 35.9518C29.4085 35.9421 28.6199 36.2687 28.0467 36.8557L26.1464 38.8018C24.9694 40.0073 23.0306 40.0073 21.8536 38.8018L19.9533 36.8557C19.3801 36.2687 18.5915 35.9421 17.7711 35.9518L15.0513 35.9842C13.3666 36.0043 11.9957 34.6334 12.0158 32.9487L12.0482 30.2289C12.0579 29.4085 11.7313 28.6199 11.1443 28.0467L9.19819 26.1464C7.99273 24.9694 7.99273 23.0306 9.19819 21.8536L11.1443 19.9533C11.7313 19.3801 12.0579 18.5915 12.0482 17.7711L12.0158 15.0513C11.9957 13.3666 13.3666 11.9957 15.0513 12.0158L17.7711 12.0482C18.5915 12.0579 19.3801 11.7313 19.9533 11.1443L21.8536 9.19819Z" fill="#FFBC58"/>
</svg>
