<svg width="48" height="48" viewBox="0 0 48 48" fill="none" xmlns="http://www.w3.org/2000/svg">
<mask id="path-1-inside-1_393_3107" fill="white">
<path fill-rule="evenodd" clip-rule="evenodd" d="M11 7C8.79086 7 7 8.79086 7 11V37C7 39.2091 8.79086 41 11 41H37C39.2091 41 41 39.2091 41 37V11C41 8.79086 39.2091 7 37 7H11ZM10 10.5C10 9.67157 10.6716 9 11.5 9C12.3284 9 13 9.67157 13 10.5V12.5C13 13.3284 12.3284 14 11.5 14C10.6716 14 10 13.3284 10 12.5V10.5ZM10 35.5C10 34.6716 10.6716 34 11.5 34C12.3284 34 13 34.6716 13 35.5V37.5C13 38.3284 12.3284 39 11.5 39C10.6716 39 10 38.3284 10 37.5V35.5ZM16.5 9C15.6716 9 15 9.67157 15 10.5V12.5C15 13.3284 15.6716 14 16.5 14C17.3284 14 18 13.3284 18 12.5V10.5C18 9.67157 17.3284 9 16.5 9ZM15 35.5C15 34.6716 15.6716 34 16.5 34C17.3284 34 18 34.6716 18 35.5V37.5C18 38.3284 17.3284 39 16.5 39C15.6716 39 15 38.3284 15 37.5V35.5ZM21.5 9C20.6716 9 20 9.67157 20 10.5V12.5C20 13.3284 20.6716 14 21.5 14C22.3284 14 23 13.3284 23 12.5V10.5C23 9.67157 22.3284 9 21.5 9ZM20 35.5C20 34.6716 20.6716 34 21.5 34C22.3284 34 23 34.6716 23 35.5V37.5C23 38.3284 22.3284 39 21.5 39C20.6716 39 20 38.3284 20 37.5V35.5ZM26.5 9C25.6716 9 25 9.67157 25 10.5V12.5C25 13.3284 25.6716 14 26.5 14C27.3284 14 28 13.3284 28 12.5V10.5C28 9.67157 27.3284 9 26.5 9ZM25 35.5C25 34.6716 25.6716 34 26.5 34C27.3284 34 28 34.6716 28 35.5V37.5C28 38.3284 27.3284 39 26.5 39C25.6716 39 25 38.3284 25 37.5V35.5ZM31.5 9C30.6716 9 30 9.67157 30 10.5V12.5C30 13.3284 30.6716 14 31.5 14C32.3284 14 33 13.3284 33 12.5V10.5C33 9.67157 32.3284 9 31.5 9ZM30 35.5C30 34.6716 30.6716 34 31.5 34C32.3284 34 33 34.6716 33 35.5V37.5C33 38.3284 32.3284 39 31.5 39C30.6716 39 30 38.3284 30 37.5V35.5ZM36.5 9C35.6716 9 35 9.67157 35 10.5V12.5C35 13.3284 35.6716 14 36.5 14C37.3284 14 38 13.3284 38 12.5V10.5C38 9.67157 37.3284 9 36.5 9ZM35 35.5C35 34.6716 35.6716 34 36.5 34C37.3284 34 38 34.6716 38 35.5V37.5C38 38.3284 37.3284 39 36.5 39C35.6716 39 35 38.3284 35 37.5V35.5Z"/>
</mask>
<path fill-rule="evenodd" clip-rule="evenodd" d="M11 7C8.79086 7 7 8.79086 7 11V37C7 39.2091 8.79086 41 11 41H37C39.2091 41 41 39.2091 41 37V11C41 8.79086 39.2091 7 37 7H11ZM10 10.5C10 9.67157 10.6716 9 11.5 9C12.3284 9 13 9.67157 13 10.5V12.5C13 13.3284 12.3284 14 11.5 14C10.6716 14 10 13.3284 10 12.5V10.5ZM10 35.5C10 34.6716 10.6716 34 11.5 34C12.3284 34 13 34.6716 13 35.5V37.5C13 38.3284 12.3284 39 11.5 39C10.6716 39 10 38.3284 10 37.5V35.5ZM16.5 9C15.6716 9 15 9.67157 15 10.5V12.5C15 13.3284 15.6716 14 16.5 14C17.3284 14 18 13.3284 18 12.5V10.5C18 9.67157 17.3284 9 16.5 9ZM15 35.5C15 34.6716 15.6716 34 16.5 34C17.3284 34 18 34.6716 18 35.5V37.5C18 38.3284 17.3284 39 16.5 39C15.6716 39 15 38.3284 15 37.5V35.5ZM21.5 9C20.6716 9 20 9.67157 20 10.5V12.5C20 13.3284 20.6716 14 21.5 14C22.3284 14 23 13.3284 23 12.5V10.5C23 9.67157 22.3284 9 21.5 9ZM20 35.5C20 34.6716 20.6716 34 21.5 34C22.3284 34 23 34.6716 23 35.5V37.5C23 38.3284 22.3284 39 21.5 39C20.6716 39 20 38.3284 20 37.5V35.5ZM26.5 9C25.6716 9 25 9.67157 25 10.5V12.5C25 13.3284 25.6716 14 26.5 14C27.3284 14 28 13.3284 28 12.5V10.5C28 9.67157 27.3284 9 26.5 9ZM25 35.5C25 34.6716 25.6716 34 26.5 34C27.3284 34 28 34.6716 28 35.5V37.5C28 38.3284 27.3284 39 26.5 39C25.6716 39 25 38.3284 25 37.5V35.5ZM31.5 9C30.6716 9 30 9.67157 30 10.5V12.5C30 13.3284 30.6716 14 31.5 14C32.3284 14 33 13.3284 33 12.5V10.5C33 9.67157 32.3284 9 31.5 9ZM30 35.5C30 34.6716 30.6716 34 31.5 34C32.3284 34 33 34.6716 33 35.5V37.5C33 38.3284 32.3284 39 31.5 39C30.6716 39 30 38.3284 30 37.5V35.5ZM36.5 9C35.6716 9 35 9.67157 35 10.5V12.5C35 13.3284 35.6716 14 36.5 14C37.3284 14 38 13.3284 38 12.5V10.5C38 9.67157 37.3284 9 36.5 9ZM35 35.5C35 34.6716 35.6716 34 36.5 34C37.3284 34 38 34.6716 38 35.5V37.5C38 38.3284 37.3284 39 36.5 39C35.6716 39 35 38.3284 35 37.5V35.5Z" fill="#804FE8"/>
<path d="M10 11C10 10.4477 10.4477 10 11 10V4C7.13401 4 4 7.13401 4 11H10ZM10 37V11H4V37H10ZM11 38C10.4477 38 10 37.5523 10 37H4C4 40.866 7.13401 44 11 44V38ZM37 38H11V44H37V38ZM38 37C38 37.5523 37.5523 38 37 38V44C40.866 44 44 40.866 44 37H38ZM38 11V37H44V11H38ZM37 10C37.5523 10 38 10.4477 38 11H44C44 7.13401 40.866 4 37 4V10ZM11 10H37V4H11V10ZM11.5 6C9.01472 6 7 8.01472 7 10.5H13C13 11.3284 12.3284 12 11.5 12V6ZM16 10.5C16 8.01472 13.9853 6 11.5 6V12C10.6716 12 10 11.3284 10 10.5H16ZM16 12.5V10.5H10V12.5H16ZM11.5 17C13.9853 17 16 14.9853 16 12.5H10C10 11.6716 10.6716 11 11.5 11V17ZM7 12.5C7 14.9853 9.01472 17 11.5 17V11C12.3284 11 13 11.6716 13 12.5H7ZM7 10.5V12.5H13V10.5H7ZM11.5 31C9.01472 31 7 33.0147 7 35.5H13C13 36.3284 12.3284 37 11.5 37V31ZM16 35.5C16 33.0147 13.9853 31 11.5 31V37C10.6716 37 10 36.3284 10 35.5H16ZM16 37.5V35.5H10V37.5H16ZM11.5 42C13.9853 42 16 39.9853 16 37.5H10C10 36.6716 10.6716 36 11.5 36V42ZM7 37.5C7 39.9853 9.01472 42 11.5 42V36C12.3284 36 13 36.6716 13 37.5H7ZM7 35.5V37.5H13V35.5H7ZM18 10.5C18 11.3284 17.3284 12 16.5 12V6C14.0147 6 12 8.01472 12 10.5H18ZM18 12.5V10.5H12V12.5H18ZM16.5 11C17.3284 11 18 11.6716 18 12.5H12C12 14.9853 14.0147 17 16.5 17V11ZM15 12.5C15 11.6716 15.6716 11 16.5 11V17C18.9853 17 21 14.9853 21 12.5H15ZM15 10.5V12.5H21V10.5H15ZM16.5 12C15.6716 12 15 11.3284 15 10.5H21C21 8.01472 18.9853 6 16.5 6V12ZM16.5 31C14.0147 31 12 33.0147 12 35.5H18C18 36.3284 17.3284 37 16.5 37V31ZM21 35.5C21 33.0147 18.9853 31 16.5 31V37C15.6716 37 15 36.3284 15 35.5H21ZM21 37.5V35.5H15V37.5H21ZM16.5 42C18.9853 42 21 39.9853 21 37.5H15C15 36.6716 15.6716 36 16.5 36V42ZM12 37.5C12 39.9853 14.0147 42 16.5 42V36C17.3284 36 18 36.6716 18 37.5H12ZM12 35.5V37.5H18V35.5H12ZM23 10.5C23 11.3284 22.3284 12 21.5 12V6C19.0147 6 17 8.01472 17 10.5H23ZM23 12.5V10.5H17V12.5H23ZM21.5 11C22.3284 11 23 11.6716 23 12.5H17C17 14.9853 19.0147 17 21.5 17V11ZM20 12.5C20 11.6716 20.6716 11 21.5 11V17C23.9853 17 26 14.9853 26 12.5H20ZM20 10.5V12.5H26V10.5H20ZM21.5 12C20.6716 12 20 11.3284 20 10.5H26C26 8.01472 23.9853 6 21.5 6V12ZM21.5 31C19.0147 31 17 33.0147 17 35.5H23C23 36.3284 22.3284 37 21.5 37V31ZM26 35.5C26 33.0147 23.9853 31 21.5 31V37C20.6716 37 20 36.3284 20 35.5H26ZM26 37.5V35.5H20V37.5H26ZM21.5 42C23.9853 42 26 39.9853 26 37.5H20C20 36.6716 20.6716 36 21.5 36V42ZM17 37.5C17 39.9853 19.0147 42 21.5 42V36C22.3284 36 23 36.6716 23 37.5H17ZM17 35.5V37.5H23V35.5H17ZM28 10.5C28 11.3284 27.3284 12 26.5 12V6C24.0147 6 22 8.01472 22 10.5H28ZM28 12.5V10.5H22V12.5H28ZM26.5 11C27.3284 11 28 11.6716 28 12.5H22C22 14.9853 24.0147 17 26.5 17V11ZM25 12.5C25 11.6716 25.6716 11 26.5 11V17C28.9853 17 31 14.9853 31 12.5H25ZM25 10.5V12.5H31V10.5H25ZM26.5 12C25.6716 12 25 11.3284 25 10.5H31C31 8.01472 28.9853 6 26.5 6V12ZM26.5 31C24.0147 31 22 33.0147 22 35.5H28C28 36.3284 27.3284 37 26.5 37V31ZM31 35.5C31 33.0147 28.9853 31 26.5 31V37C25.6716 37 25 36.3284 25 35.5H31ZM31 37.5V35.5H25V37.5H31ZM26.5 42C28.9853 42 31 39.9853 31 37.5H25C25 36.6716 25.6716 36 26.5 36V42ZM22 37.5C22 39.9853 24.0147 42 26.5 42V36C27.3284 36 28 36.6716 28 37.5H22ZM22 35.5V37.5H28V35.5H22ZM33 10.5C33 11.3284 32.3284 12 31.5 12V6C29.0147 6 27 8.01472 27 10.5H33ZM33 12.5V10.5H27V12.5H33ZM31.5 11C32.3284 11 33 11.6716 33 12.5H27C27 14.9853 29.0147 17 31.5 17V11ZM30 12.5C30 11.6716 30.6716 11 31.5 11V17C33.9853 17 36 14.9853 36 12.5H30ZM30 10.5V12.5H36V10.5H30ZM31.5 12C30.6716 12 30 11.3284 30 10.5H36C36 8.01472 33.9853 6 31.5 6V12ZM31.5 31C29.0147 31 27 33.0147 27 35.5H33C33 36.3284 32.3284 37 31.5 37V31ZM36 35.5C36 33.0147 33.9853 31 31.5 31V37C30.6716 37 30 36.3284 30 35.5H36ZM36 37.5V35.5H30V37.5H36ZM31.5 42C33.9853 42 36 39.9853 36 37.5H30C30 36.6716 30.6716 36 31.5 36V42ZM27 37.5C27 39.9853 29.0147 42 31.5 42V36C32.3284 36 33 36.6716 33 37.5H27ZM27 35.5V37.5H33V35.5H27ZM38 10.5C38 11.3284 37.3284 12 36.5 12V6C34.0147 6 32 8.01472 32 10.5H38ZM38 12.5V10.5H32V12.5H38ZM36.5 11C37.3284 11 38 11.6716 38 12.5H32C32 14.9853 34.0147 17 36.5 17V11ZM35 12.5C35 11.6716 35.6716 11 36.5 11V17C38.9853 17 41 14.9853 41 12.5H35ZM35 10.5V12.5H41V10.5H35ZM36.5 12C35.6716 12 35 11.3284 35 10.5H41C41 8.01472 38.9853 6 36.5 6V12ZM36.5 31C34.0147 31 32 33.0147 32 35.5H38C38 36.3284 37.3284 37 36.5 37V31ZM41 35.5C41 33.0147 38.9853 31 36.5 31V37C35.6716 37 35 36.3284 35 35.5H41ZM41 37.5V35.5H35V37.5H41ZM36.5 42C38.9853 42 41 39.9853 41 37.5H35C35 36.6716 35.6716 36 36.5 36V42ZM32 37.5C32 39.9853 34.0147 42 36.5 42V36C37.3284 36 38 36.6716 38 37.5H32ZM32 35.5V37.5H38V35.5H32Z" fill="#804FE8" mask="url(#path-1-inside-1_393_3107)"/>
<path d="M29.75 22.701C30.75 23.2783 30.75 24.7217 29.75 25.299L20.75 30.4952C19.75 31.0725 18.5 30.3509 18.5 29.1962L18.5 18.8038C18.5 17.6491 19.75 16.9275 20.75 17.5048L29.75 22.701Z" fill="white"/>
</svg>
