<svg width="48" height="48" viewBox="0 0 48 48" fill="none" xmlns="http://www.w3.org/2000/svg">
<rect x="8.2" y="27.4" width="30.6" height="11.3333" rx="2" fill="#0097FF"/>
<path d="M11.6 9C11.6 7.89543 12.4954 7 13.6 7H17.5333C18.6379 7 19.5333 7.89543 19.5333 9V16.0667L11.6 16.6333V9Z" fill="#0097FF"/>
<path d="M35.4 9C35.4 7.89543 34.5046 7 33.4 7H29.4667C28.3621 7 27.4667 7.89543 27.4667 9V15.527L35.4 17.2V9Z" fill="#0097FF"/>
<path fill-rule="evenodd" clip-rule="evenodd" d="M14.6 13.8C12.9431 13.8 11.6 15.1431 11.6 16.8V38C11.6 39.6569 12.9431 41 14.6 41H32.4C34.0569 41 35.4 39.6569 35.4 38V16.8C35.4 15.1431 34.0569 13.8 32.4 13.8H14.6ZM20.931 18.0684L20.931 18.0687L20.9303 18.0852C20.9296 18.1029 20.9287 18.1332 20.9286 18.1745C20.9284 18.2575 20.9313 18.382 20.9447 18.5339C20.972 18.8432 21.0402 19.2353 21.1931 19.6119C21.3441 19.9838 21.5673 20.3166 21.8974 20.5594C22.2213 20.7977 22.7167 21 23.5 21C24.2833 21 24.7787 20.7977 25.1026 20.5594C25.4327 20.3166 25.6559 19.9838 25.8069 19.6119C25.9598 19.2353 26.028 18.8432 26.0553 18.5339C26.0687 18.382 26.0716 18.2575 26.0714 18.1745C26.0713 18.1332 26.0704 18.1029 26.0697 18.0852L26.069 18.0687L26.069 18.0683C26.0327 17.5195 26.431 17.0429 26.9606 17.0027C27.4917 16.9624 27.9538 17.3762 27.9927 17.927L27.031 18C27.9927 17.927 27.9928 17.9275 27.9928 17.928L27.9929 17.9291L27.993 17.9316L27.9934 17.9377L27.9944 17.9543C27.9951 17.9673 27.996 17.9842 27.9968 18.0047C27.9983 18.0457 27.9998 18.1012 28 18.1693C28.0003 18.3051 27.9955 18.493 27.9758 18.7162C27.9369 19.1568 27.8374 19.7648 27.5843 20.3881C27.3292 21.0162 26.9079 21.6835 26.2184 22.1906C25.5228 22.7023 24.6234 23 23.5 23C22.3766 23 21.4772 22.7023 20.7816 22.1906C20.0921 21.6835 19.6708 21.0162 19.4157 20.3881C19.1626 19.7648 19.0631 19.1568 19.0242 18.7162C19.0045 18.493 18.9997 18.3051 19 18.1693C19.0002 18.1012 19.0017 18.0457 19.0032 18.0047C19.004 17.9842 19.0049 17.9673 19.0056 17.9543L19.0066 17.9377L19.007 17.9316L19.0071 17.9291L19.0072 17.928C19.0072 17.9275 19.0073 17.927 19.969 18L19.0073 17.927C19.0462 17.3762 19.5083 16.9624 20.0394 17.0027C20.569 17.0429 20.9673 17.5195 20.931 18.0684L20.931 18.0684ZM27.001 18.0023C26.0775 18.0724 26.0693 18.0726 26.0692 18.0722L26.0693 18.0731L27.001 18.0023Z" fill="#6AC2FF"/>
<rect x="14" y="30" width="19" height="9" rx="2" fill="#B7E1FF"/>
</svg>
