<svg width="48" height="48" viewBox="0 0 48 48" fill="none" xmlns="http://www.w3.org/2000/svg">
<path fill-rule="evenodd" clip-rule="evenodd" d="M6.11844 14.7714L7.09691 32.884C7.16636 34.1695 8.04824 35.2674 9.28853 35.6124L27.2886 40.6197C28.154 40.8604 29.0819 40.7007 29.817 40.1843L40.1608 32.9185C40.9364 32.3737 41.4089 31.4943 41.4352 30.5468L41.9263 12.8478C41.9684 11.3322 40.873 10.0235 39.3737 9.79797L21.5445 7.11641C21.037 7.04007 20.5184 7.09522 20.0383 7.27656L8.05404 11.8031C6.83097 12.2651 6.04792 13.4659 6.11844 14.7714ZM37.715 14.3186C38.4433 13.9237 38.7135 13.0132 38.3186 12.285C37.9237 11.5567 37.0132 11.2865 36.285 11.6814L28.1362 16.1002L12.3098 12.7596C11.4992 12.5885 10.7034 13.1069 10.5323 13.9175C10.3612 14.728 10.8796 15.5238 11.6902 15.6949L26.8663 18.8982V37C26.8663 37.8284 27.5379 38.5 28.3663 38.5C29.1947 38.5 29.8663 37.8284 29.8663 37V18.5748L37.715 14.3186Z" fill="#8B8B8B"/>
</svg>
