<svg width="48" height="48" viewBox="0 0 48 48" fill="none" xmlns="http://www.w3.org/2000/svg">
<g clip-path="url(#clip0_373_1695)">
<path opacity="0.8" d="M16.3507 37.4012C15.0371 38.7149 10.621 40.9683 9.2981 39.6454C7.97515 38.3224 10.2463 33.9241 11.5599 32.6104C12.8736 31.2967 15.011 31.3042 16.334 32.6272C17.6569 33.9501 17.6644 36.0875 16.3507 37.4012Z" fill="#DD5555"/>
<path d="M21.149 19.2338L7.11829 23.5683C6.11823 23.8773 6.2048 25.3205 7.23463 25.5076L13.7 26.6828L21.149 19.2338Z" fill="#DD5555"/>
<path d="M29.1189 27.2037L24.7844 41.2344C24.4754 42.2344 23.0322 42.1479 22.845 41.118L21.6699 34.6527L29.1189 27.2037Z" fill="#DD5555"/>
<path fill-rule="evenodd" clip-rule="evenodd" d="M26.9319 12.0027C26.6234 12.0991 26.3428 12.2689 26.1143 12.4974L13.7077 24.904C12.9267 25.685 12.9267 26.9513 13.7077 27.7324L20.6203 34.645C21.4013 35.426 22.6677 35.426 23.4487 34.645L35.8553 22.2384C36.0838 22.0099 36.2536 21.7293 36.35 21.4208L39.4921 11.3661C39.9733 9.82604 38.5266 8.37934 36.9866 8.86061L26.9319 12.0027ZM26.905 21.4477C27.6386 22.1813 28.828 22.1813 29.5616 21.4477C30.2953 20.7141 30.2953 19.5247 29.5616 18.791C28.828 18.0574 27.6386 18.0574 26.905 18.791C26.1714 19.5247 26.1714 20.7141 26.905 21.4477ZM23.3628 24.9899C24.0964 25.7235 25.2859 25.7235 26.0195 24.9899C26.7531 24.2563 26.7531 23.0668 26.0195 22.3332C25.2859 21.5996 24.0964 21.5996 23.3628 22.3332C22.6292 23.0668 22.6292 24.2563 23.3628 24.9899ZM22.4773 28.532C21.7437 29.2657 20.5543 29.2657 19.8206 28.532C19.087 27.7984 19.087 26.609 19.8206 25.8754C20.5543 25.1418 21.7437 25.1418 22.4773 25.8754C23.2109 26.609 23.2109 27.7984 22.4773 28.532Z" fill="#DD5555"/>
<path d="M19.8206 28.532C20.5543 29.2657 21.7437 29.2657 22.4773 28.532C23.2109 27.7984 23.2109 26.609 22.4773 25.8754C21.7437 25.1418 20.5543 25.1418 19.8206 25.8754C19.087 26.609 19.087 27.7984 19.8206 28.532Z" fill="#DD5555"/>
</g>
<defs>
<clipPath id="clip0_373_1695">
<rect width="48" height="48" fill="white"/>
</clipPath>
</defs>
</svg>
