<svg width="48" height="48" viewBox="0 0 48 48" fill="none" xmlns="http://www.w3.org/2000/svg">
<path fill-rule="evenodd" clip-rule="evenodd" d="M6.45161 17.6774C6.45161 16.0206 7.79476 14.6774 9.45161 14.6774H38.5484C40.2052 14.6774 41.5484 16.0206 41.5484 17.6774V38C41.5484 39.6569 40.2052 41 38.5484 41H9.45161C7.79476 41 6.45161 39.6569 6.45161 38V17.6774ZM31.6774 27.8387C31.6774 32.0788 28.2401 35.5161 24 35.5161C19.7599 35.5161 16.3226 32.0788 16.3226 27.8387C16.3226 23.5986 19.7599 20.1613 24 20.1613C28.2401 20.1613 31.6774 23.5986 31.6774 27.8387ZM11.9355 22.3548C13.1469 22.3548 14.129 21.3728 14.129 20.1613C14.129 18.9498 13.1469 17.9677 11.9355 17.9677C10.724 17.9677 9.74193 18.9498 9.74193 20.1613C9.74193 21.3728 10.724 22.3548 11.9355 22.3548Z" fill="#CC00FF"/>
<rect x="17.4194" y="7" width="13.1613" height="5.48387" rx="2.74194" fill="#DA44FF"/>
</svg>
