<svg width="48" height="48" viewBox="0 0 48 48" fill="none" xmlns="http://www.w3.org/2000/svg">
<path d="M29 22C29 20.3431 27.6569 19 26 19H10C8.34315 19 7 20.3431 7 22V33.7834C7 35.4173 8.3246 36.7419 9.95857 36.7419C10.5366 36.7419 10.9907 37.2368 10.9411 37.8127L10.8363 39.0296C10.766 39.8464 11.6546 40.3962 12.3542 39.9686L16.913 37.1822C17.3841 36.8943 17.9255 36.7419 18.4775 36.7419H26C27.6569 36.7419 29 35.3988 29 33.7419V22Z" fill="#CC9747"/>
<path d="M13 10C13 8.34315 14.3431 7 16 7H40C41.6569 7 43 8.34315 43 10V27.3871C43 29.0439 41.6569 30.3871 40 30.3871H38.593C38.0057 30.3871 37.5449 30.8908 37.597 31.4758L37.8271 34.0591C37.8994 34.8703 37.0235 35.4231 36.3224 35.0088L29.206 30.8042C28.7438 30.5312 28.2168 30.3871 27.68 30.3871H16C14.3431 30.3871 13 29.044 13 27.3871V10Z" fill="#FFBC58"/>
</svg>
