<svg width="48" height="48" viewBox="0 0 48 48" fill="none" xmlns="http://www.w3.org/2000/svg">
<path d="M39.6066 24.0711C39.6066 22.0216 39.2029 19.9922 38.4186 18.0987C37.6343 16.2052 36.4847 14.4847 35.0355 13.0355L24 24.0711H39.6066Z" fill="#E8D04F"/>
<path d="M24 39.6777C26.0495 39.6777 28.0789 39.274 29.9724 38.4897C31.8659 37.7054 33.5863 36.5558 35.0355 35.1066L24 24.0711L24 39.6777Z" fill="#4FD6E8"/>
<path d="M8.39342 24.0711C8.39342 26.1206 8.79709 28.15 9.5814 30.0435C10.3657 31.9369 11.5153 33.6574 12.9645 35.1066L24 24.0711L8.39342 24.0711Z" fill="#804FE8"/>
<path d="M24 8.46449C21.9505 8.46449 19.9211 8.86817 18.0276 9.65247C16.1341 10.4368 14.4137 11.5864 12.9645 13.0356L24 24.0711L24 8.46449Z" fill="#E84F4F"/>
<path d="M35.0355 35.1066C36.4847 33.6574 37.6343 31.9369 38.4186 30.0434C39.2029 28.15 39.6066 26.1205 39.6066 24.0711H24L35.0355 35.1066Z" fill="#4FE883"/>
<path d="M12.9645 35.1066C14.4137 36.5558 16.1342 37.7054 18.0276 38.4897C19.9211 39.274 21.9505 39.6777 24 39.6777L24 24.0711L12.9645 35.1066Z" fill="#4F8CE8"/>
<path d="M12.9645 13.0356C11.5153 14.4848 10.3657 16.2052 9.58139 18.0987C8.79709 19.9922 8.39341 22.0216 8.39341 24.0711L24 24.0711L12.9645 13.0356Z" fill="#D34FE8"/>
<path d="M35.0355 13.0356C33.5863 11.5864 31.8658 10.4368 29.9724 9.6525C28.0789 8.8682 26.0495 8.46452 24 8.46452L24 24.0711L35.0355 13.0356Z" fill="#E8864F"/>
</svg>
