<svg width="48" height="48" viewBox="0 0 48 48" fill="none" xmlns="http://www.w3.org/2000/svg">
<g id="ColorRange">
<g id="Group 4">
<g id="Group 3">
<path id="Rectangle 1" d="M7 15C7 12.7909 8.79086 11 11 11H14V27H11C8.79086 27 7 25.2091 7 23V15Z" fill="#E84F4F"/>
<rect id="Rectangle 2" x="14" y="11" width="7" height="16" fill="#E8864F"/>
<rect id="Rectangle 3" x="20" y="11" width="7" height="16" fill="#E8D04F"/>
<rect id="Rectangle 5" x="27" y="11" width="7" height="16" fill="#4FE883"/>
<path id="Rectangle 7" d="M34 11H37C39.2091 11 41 12.7909 41 15V23C41 25.2091 39.2091 27 37 27H34V11Z" fill="#4F8CE8"/>
</g>
<path id="Polygon 1" d="M13.067 28.75C13.2594 28.4167 13.7406 28.4167 13.933 28.75L16.9641 34C17.1566 34.3333 16.916 34.75 16.5311 34.75H10.4689C10.084 34.75 9.84345 34.3333 10.0359 34L13.067 28.75Z" fill="#F3F3F3"/>
<path id="Polygon 2" d="M34.067 28.75C34.2594 28.4167 34.7406 28.4167 34.933 28.75L37.9641 34C38.1566 34.3333 37.916 34.75 37.5311 34.75H31.4689C31.084 34.75 30.8434 34.3333 31.0359 34L34.067 28.75Z" fill="#F3F3F3"/>
<path id="Vector 1" d="M29 31H19" stroke="#F3F3F3" stroke-width="2" stroke-linecap="round"/>
</g>
</g>
</svg>
