<svg width="48" height="48" viewBox="0 0 48 48" fill="none" xmlns="http://www.w3.org/2000/svg">
<path fill-rule="evenodd" clip-rule="evenodd" d="M11 7C8.79086 7 7 8.79086 7 11V37C7 39.2091 8.79086 41 11 41H37C39.2091 41 41 39.2091 41 37V11C41 8.79086 39.2091 7 37 7H11ZM35 16C35 18.2091 33.2091 20 31 20C28.7909 20 27 18.2091 27 16C27 13.7909 28.7909 12 31 12C33.2091 12 35 13.7909 35 16ZM23.4479 20.8C22.8044 19.7333 21.1956 19.7333 20.5521 20.8L12.2265 34.6C11.583 35.6667 12.3874 37 13.6744 37H24.1316H30.3256H35.2512C36.7409 37 37.6444 35.356 36.8457 34.0985L31.2859 25.344C30.5439 24.1757 28.8389 24.1757 28.0969 25.344L27.1186 26.8844L23.4479 20.8Z" fill="#FFA15E"/>
</svg>
