<svg width="48" height="48" viewBox="0 0 48 48" fill="none" xmlns="http://www.w3.org/2000/svg">
<path d="M36.1429 19.1429C36.1429 25.8492 30.7063 31.2857 24 31.2857C17.2937 31.2857 11.8571 25.8492 11.8571 19.1429C11.8571 12.4365 17.2937 7 24 7C30.7063 7 36.1429 12.4365 36.1429 19.1429Z" fill="#0097FF"/>
<path fill-rule="evenodd" clip-rule="evenodd" d="M35.4664 23.1492C35.9046 21.8949 36.1429 20.5467 36.1429 19.1429C36.1429 13.7389 32.6129 9.15948 27.733 7.5846C26.4701 9.19121 25.4364 11.9682 28.8572 13.6786C32.7429 15.6214 32.0952 18.5357 31.2857 19.75C31.4881 21.3691 32.5 24.3643 34.9286 23.3929C35.1137 23.3188 35.293 23.2372 35.4664 23.1492ZM21.902 7.23491L21.9021 7.23486L21.9022 7.23473C21.9292 7.21188 21.956 7.18925 21.9825 7.16685C16.5579 8.074 12.3515 12.5774 11.8978 18.1426C12.3814 18.3602 12.9861 18.5357 13.6786 18.5357C15.5 18.5357 20.1143 15.9857 19.1429 13.0714C18.2318 10.3383 20.4537 8.45954 21.902 7.23491Z" fill="#4FE883"/>
<path d="M10.6429 20.1429C10.6429 19.5906 11.0906 19.1429 11.6429 19.1429H36.3572C36.9095 19.1429 37.3572 19.5906 37.3572 20.1429V40C37.3572 40.5523 36.9095 41 36.3572 41H11.6429C11.0906 41 10.6429 40.5523 10.6429 40V20.1429Z" fill="#D99C40"/>
<path d="M7.50668 27.506L10.3995 19.7917C10.5459 19.4014 10.919 19.1429 11.3359 19.1429H36.6642C37.081 19.1429 37.4541 19.4014 37.6005 19.7917L40.4933 27.506C40.7385 28.1598 40.2552 28.8571 39.557 28.8571H8.44301C7.74481 28.8571 7.26153 28.1598 7.50668 27.506Z" fill="#DDA755"/>
<path fill-rule="evenodd" clip-rule="evenodd" d="M33.7143 33.9286C34.2666 33.9286 34.7143 34.3763 34.7143 34.9286V37.3571C34.7143 37.9094 34.2666 38.3571 33.7143 38.3571C33.162 38.3571 32.7143 37.9094 32.7143 37.3571V34.9286C32.7143 34.3763 33.162 33.9286 33.7143 33.9286Z" fill="#BF8226"/>
<path fill-rule="evenodd" clip-rule="evenodd" d="M30.0714 33.9286C30.6237 33.9286 31.0714 34.3763 31.0714 34.9286V37.3571C31.0714 37.9094 30.6237 38.3571 30.0714 38.3571C29.5192 38.3571 29.0714 37.9094 29.0714 37.3571V34.9286C29.0714 34.3763 29.5192 33.9286 30.0714 33.9286Z" fill="#BF8226"/>
</svg>
