<svg width="48" height="48" viewBox="0 0 48 48" fill="none" xmlns="http://www.w3.org/2000/svg">
<g id="GradientSky">
<path id="Vector" d="M24 41C33.3888 41 41 33.3888 41 24C41 14.6112 33.3888 7 24 7C14.6112 7 7 14.6112 7 24C7 33.3888 14.6112 41 24 41Z" fill="#CC00FF"/>
<g id="Mask group">
<mask id="mask0_1_247" style="mask-type:alpha" maskUnits="userSpaceOnUse" x="7" y="7" width="34" height="34">
<g id="Group">
<path id="Vector_2" d="M24 41C33.3888 41 41 33.3888 41 24C41 14.6112 33.3888 7 24 7C14.6112 7 7 14.6112 7 24C7 33.3888 14.6112 41 24 41Z" fill="#CC00FF"/>
</g>
</mask>
<g mask="url(#mask0_1_247)">
<path id="Vector_3" d="M24.5 63C36.9264 63 47 55.3888 47 46C47 36.6112 36.9264 29 24.5 29C12.0736 29 2 36.6112 2 46C2 55.3888 12.0736 63 24.5 63Z" fill="#FFDF8E"/>
<g id="Group_2">
<path id="Vector_4" fill-rule="evenodd" clip-rule="evenodd" d="M13.8201 24.4888C18.2384 24.4888 21.8201 20.907 21.8201 16.4888C21.8201 14.3639 20.9917 12.4325 19.6402 11C22.667 12.1404 24.8201 15.0631 24.8201 18.4888C24.8201 22.907 21.2384 26.4888 16.8201 26.4888C14.5267 26.4888 12.4587 25.5237 11 23.9775C11.8771 24.308 12.8275 24.4888 13.8201 24.4888Z" fill="#FFDF8E"/>
</g>
</g>
</g>
<path id="Vector_5" d="M29.2655 10.6336C29.3461 10.416 29.6539 10.416 29.7345 10.6336L30.4054 12.4469C30.4307 12.5153 30.4847 12.5693 30.5531 12.5946L32.3664 13.2655C32.584 13.3461 32.584 13.6539 32.3664 13.7345L30.5531 14.4054C30.4847 14.4307 30.4307 14.4847 30.4054 14.5531L29.7345 16.3664C29.6539 16.584 29.3461 16.584 29.2655 16.3664L28.5946 14.5531C28.5693 14.4847 28.5153 14.4307 28.4469 14.4054L26.6336 13.7345C26.416 13.6539 26.416 13.3461 26.6336 13.2655L28.4469 12.5946C28.5153 12.5693 28.5693 12.5153 28.5946 12.4469L29.2655 10.6336Z" fill="#FFDF8E"/>
<path id="Vector_6" d="M11.2655 17.6336C11.3461 17.416 11.6539 17.416 11.7345 17.6336L12.1353 18.717C12.1607 18.7854 12.2146 18.8393 12.283 18.8647L13.3664 19.2655C13.584 19.3461 13.584 19.6539 13.3664 19.7345L12.283 20.1353C12.2146 20.1607 12.1607 20.2146 12.1353 20.283L11.7345 21.3664C11.6539 21.584 11.3461 21.584 11.2655 21.3664L10.8647 20.283C10.8393 20.2146 10.7854 20.1607 10.717 20.1353L9.63364 19.7345C9.41598 19.6539 9.41598 19.3461 9.63364 19.2655L10.717 18.8647C10.7854 18.8393 10.8393 18.7854 10.8647 18.717L11.2655 17.6336Z" fill="#FFDF8E"/>
</g>
</svg>
