<svg width="48" height="48" viewBox="0 0 48 48" fill="none" xmlns="http://www.w3.org/2000/svg">
<path d="M9 11C9 9.89543 9.89543 9 11 9H37C38.1046 9 39 9.89543 39 11V37C39 38.1046 38.1046 39 37 39H11C9.89543 39 9 38.1046 9 37V11Z" stroke="#4FE883" stroke-width="4"/>
<path fill-rule="evenodd" clip-rule="evenodd" d="M41 32H7V36C7 38.2091 8.79086 40 11 40H37C39.2091 40 41 38.2091 41 36V32ZM28 35.5C28 34.6716 28.6716 34 29.5 34C30.3284 34 31 34.6716 31 35.5C31 36.3284 30.3284 37 29.5 37C28.6716 37 28 36.3284 28 35.5ZM33 35.5C33 34.6716 33.6716 34 34.5 34C35.3284 34 36 34.6716 36 35.5C36 36.3284 35.3284 37 34.5 37C33.6716 37 33 36.3284 33 35.5Z" fill="#4FE883"/>
</svg>
