<svg width="48" height="48" viewBox="0 0 48 48" fill="none" xmlns="http://www.w3.org/2000/svg">
<path fill-rule="evenodd" clip-rule="evenodd" d="M13 11C11.8954 11 11 11.8954 11 13V18.5C11 19.6046 10.1046 20.5 9 20.5C7.89543 20.5 7 19.6046 7 18.5V13C7 9.68629 9.68629 7 13 7H18.5C19.6046 7 20.5 7.89543 20.5 9C20.5 10.1046 19.6046 11 18.5 11H13ZM27.5 9C27.5 7.89543 28.3954 7 29.5 7H35C38.3137 7 41 9.68629 41 13V18.5C41 19.6046 40.1046 20.5 39 20.5C37.8954 20.5 37 19.6046 37 18.5V13C37 11.8954 36.1046 11 35 11H29.5C28.3954 11 27.5 10.1046 27.5 9ZM9 27.5C10.1046 27.5 11 28.3954 11 29.5V35C11 36.1046 11.8954 37 13 37H18.5C19.6046 37 20.5 37.8954 20.5 39C20.5 40.1046 19.6046 41 18.5 41H13C9.68629 41 7 38.3137 7 35V29.5C7 28.3954 7.89543 27.5 9 27.5ZM39 27.5C40.1046 27.5 41 28.3954 41 29.5V35C41 38.3137 38.3137 41 35 41H29.5C28.3954 41 27.5 40.1046 27.5 39C27.5 37.8954 28.3954 37 29.5 37H35C36.1046 37 37 36.1046 37 35V29.5C37 28.3954 37.8954 27.5 39 27.5ZM15.6321 14.5409C16.4379 13.7855 17.7036 13.8263 18.4591 14.6321L21.2676 17.6279L26.9953 23.7374L29.379 26.28L31.4928 28.5347L33.4591 30.6321C34.2145 31.4379 34.1737 32.7036 33.3679 33.4591C32.5621 34.2145 31.2964 34.1737 30.5409 33.3679L27.4629 30.0847L20.1985 22.336L19.0757 21.1384L16.8539 18.7684L15.5409 17.3679C14.7855 16.5621 14.8263 15.2964 15.6321 14.5409ZM12.5 24C12.5 22.1994 13.6093 20.7752 15.0482 19.7666L17.1308 21.988C15.8789 22.7345 15.5 23.4974 15.5 24C15.5 24.5467 15.9484 25.4015 17.4811 26.2082C18.384 26.6834 19.5389 27.0639 20.8618 27.2857C20.4935 26.6828 20.2249 25.9525 20.0926 25.1472L25.0533 30.4386C24.5442 30.4792 24.0254 30.5 23.5 30.5C20.6832 30.5 18.0587 29.9023 16.0839 28.8629C14.1783 27.86 12.5 26.2147 12.5 24ZM34.5 24C34.5 25.2962 33.9251 26.3974 33.0662 27.2888L31.0103 25.0959C31.3699 24.6783 31.5 24.2945 31.5 24C31.5 23.4533 31.0516 22.5985 29.5189 21.7918C28.8379 21.4334 28.0136 21.1289 27.082 20.9056L23.8928 17.5039C26.5602 17.5567 29.0334 18.1462 30.9161 19.1371C32.8217 20.14 34.5 21.7853 34.5 24Z" fill="#7F7F7F"/>
</svg>
