<svg width="48" height="48" viewBox="0 0 48 48" fill="none" xmlns="http://www.w3.org/2000/svg">
<path fill-rule="evenodd" clip-rule="evenodd" d="M16.5 14C17.3284 14 18 14.6716 18 15.5L18 39.5C18 40.3284 17.3284 41 16.5 41L15.5 41C14.6716 41 14 40.3284 14 39.5L14 15.5C14 14.6716 14.6716 14 15.5 14L16.5 14Z" fill="#FFBC58"/>
<path fill-rule="evenodd" clip-rule="evenodd" d="M30.5 34C29.6716 34 29 33.3284 29 32.5L29 8.5C29 7.67157 29.6716 7 30.5 7L31.5 7C32.3284 7 33 7.67157 33 8.5L33 32.5C33 33.3284 32.3284 34 31.5 34L30.5 34Z" fill="#E6A94F"/>
<path d="M14.7138 8.14373C15.2964 7.17272 16.7036 7.17272 17.2862 8.14373L23.637 18.7283C24.2368 19.728 23.5167 21 22.3507 21H9.64929C8.48334 21 7.76317 19.728 8.36305 18.7283L14.7138 8.14373Z" fill="#FFBC58"/>
<path d="M32.2862 39.8563C31.7036 40.8273 30.2964 40.8273 29.7138 39.8563L23.363 29.2717C22.7632 28.272 23.4833 27 24.6493 27L37.3507 27C38.5167 27 39.2368 28.272 38.637 29.2717L32.2862 39.8563Z" fill="#E6A94F"/>
</svg>
