<svg width="48" height="48" viewBox="0 0 48 48" fill="none" xmlns="http://www.w3.org/2000/svg">
<path d="M7 33H41V37C41 39.2091 39.2091 41 37 41H11C8.79086 41 7 39.2091 7 37V33Z" fill="#CC9646"/>
<path fill-rule="evenodd" clip-rule="evenodd" d="M11 7C8.79086 7 7 8.79086 7 11V33C7 35.2091 8.79086 37 11 37H37C39.2091 37 41 35.2091 41 33V11C41 8.79086 39.2091 7 37 7H11ZM18.7257 14.1311C17.0982 13.4888 15.4888 15.0982 16.1311 16.7257L21.6054 30.5966C22.3411 32.4605 25.0561 32.2047 25.4305 30.2361L26.264 25.855C26.4174 25.0483 27.0483 24.4174 27.855 24.264L32.2361 23.4305C34.2047 23.0561 34.4605 20.3411 32.5966 19.6054L18.7257 14.1311Z" fill="#FFBC58"/>
</svg>
