<svg width="48" height="48" viewBox="0 0 48 48" fill="none" xmlns="http://www.w3.org/2000/svg">
<path d="M17.1409 38.552C14.0983 38.552 12.5769 37.0307 12.5769 33.988V27.464C12.5769 26.3254 12.0169 25.756 10.8969 25.756C10.4863 25.756 10.1409 25.6254 9.86094 25.364C9.59961 25.1027 9.46894 24.7667 9.46894 24.356C9.46894 23.9267 9.59961 23.5814 9.86094 23.32C10.1409 23.0587 10.4863 22.928 10.8969 22.928C12.0169 22.928 12.5769 22.3587 12.5769 21.22V14.696C12.5769 11.6534 14.0983 10.132 17.1409 10.132C17.5516 10.132 17.8876 10.272 18.1489 10.552C18.4103 10.832 18.5409 11.1774 18.5409 11.588C18.5409 11.9987 18.4103 12.3347 18.1489 12.596C17.8876 12.8574 17.5516 12.988 17.1409 12.988C16.0023 12.988 15.4329 13.5574 15.4329 14.696V21.22C15.4329 21.8734 15.3583 22.4614 15.2089 22.984C15.0596 23.5067 14.8356 23.964 14.5369 24.356C15.1343 25.1214 15.4329 26.1574 15.4329 27.464V33.988C15.4329 35.1267 16.0023 35.696 17.1409 35.696C17.5516 35.696 17.8876 35.8267 18.1489 36.088C18.4103 36.3494 18.5409 36.6947 18.5409 37.124C18.5409 37.5347 18.4103 37.8707 18.1489 38.132C17.8876 38.412 17.5516 38.552 17.1409 38.552Z" fill="#FFBC58"/>
<path d="M29.8696 38.552C29.4589 38.552 29.1229 38.412 28.8616 38.132C28.6002 37.8707 28.4696 37.5347 28.4696 37.124C28.4696 36.6947 28.6002 36.3494 28.8616 36.088C29.1229 35.8267 29.4589 35.696 29.8696 35.696C31.0082 35.696 31.5776 35.1267 31.5776 33.988V27.464C31.5776 26.1574 31.8762 25.1214 32.4736 24.356C32.1749 23.964 31.9509 23.5067 31.8016 22.984C31.6522 22.4614 31.5776 21.8734 31.5776 21.22V14.696C31.5776 13.5574 31.0082 12.988 29.8696 12.988C29.4589 12.988 29.1229 12.8574 28.8616 12.596C28.6002 12.3347 28.4696 11.9987 28.4696 11.588C28.4696 11.1774 28.6002 10.832 28.8616 10.552C29.1229 10.272 29.4589 10.132 29.8696 10.132C32.9122 10.132 34.4336 11.6534 34.4336 14.696V21.22C34.4336 22.3587 34.9936 22.928 36.1136 22.928C36.5242 22.928 36.8602 23.0587 37.1216 23.32C37.4016 23.5814 37.5416 23.9267 37.5416 24.356C37.5416 24.7667 37.4016 25.1027 37.1216 25.364C36.8602 25.6254 36.5242 25.756 36.1136 25.756C34.9936 25.756 34.4336 26.3254 34.4336 27.464V33.988C34.4336 37.0307 32.9122 38.552 29.8696 38.552Z" fill="#FFBC58"/>
</svg>
