<svg width="48" height="48" viewBox="0 0 48 48" fill="none" xmlns="http://www.w3.org/2000/svg">
<circle cx="17" cy="22" r="8" fill="#FFBB55"/>
<path fill-rule="evenodd" clip-rule="evenodd" d="M37 29C37 29.2464 37.1234 29.4773 37.3288 29.6133C40.1355 31.4728 42 34.7578 42 38.5C42 39.9767 40.6698 41 39.1931 41H9.37345C7.64702 41 6.02944 39.8846 6.00129 38.1584C6.00043 38.1057 6 38.0529 6 38C6 32.4772 10.701 28 16.5 28C17.8404 28 19.1063 27.0645 19.5813 25.8111C20.8685 22.4146 24.1523 20 28 20C32.9706 20 37 24.0294 37 29Z" fill="#D1E0EE"/>
</svg>
