<svg width="48" height="48" viewBox="0 0 48 48" fill="none" xmlns="http://www.w3.org/2000/svg">
<path fill-rule="evenodd" clip-rule="evenodd" d="M35.2222 28.9463C34.3825 29.9114 33.8681 31.1703 33.8681 32.5714C33.8681 33.4595 34.0747 34.2904 34.4399 35.0256C32.9398 36.082 31.7897 37.5995 31.2093 39.3845C31.0376 39.9128 30.9773 40.4337 31.0074 40.9309C30.6491 40.9793 30.3147 41 30.0278 41H10.6667V34.3973H25.6888C26.2104 34.3973 26.6333 33.9744 26.6333 33.4528C26.6333 32.9312 26.2104 32.5084 25.6888 32.5084H10.6667V10.3056C10.6667 8.03889 12.8704 7.15741 13.9722 7H39V14.5556H35.2222V28.9463ZM34.8493 38.7736C34.7644 38.9307 34.667 39.0776 34.5588 39.2148C34.6487 39.0631 34.7456 38.9159 34.8493 38.7736ZM16.9444 24C16.4228 24 16 24.4228 16 24.9444C16 25.466 16.4228 25.8889 16.9444 25.8889H28.2778C28.7994 25.8889 29.2222 25.466 29.2222 24.9444C29.2222 24.4228 28.7994 24 28.2778 24H16.9444ZM16.9444 19C16.4228 19 16 19.4228 16 19.9444C16 20.466 16.4228 20.8889 16.9444 20.8889H24.5C25.0216 20.8889 25.4444 20.466 25.4444 19.9444C25.4444 19.4228 25.0216 19 24.5 19H16.9444ZM16 14.9444C16 14.4228 16.4228 14 16.9444 14H28.2778C28.7994 14 29.2222 14.4228 29.2222 14.9444C29.2222 15.466 28.7994 15.8889 28.2778 15.8889H16.9444C16.4228 15.8889 16 15.466 16 14.9444Z" fill="#DD5555"/>
<path d="M5 36.4C5 35.2955 5.89543 34.4 7 34.4H25.6667C26.7712 34.4 27.6667 35.2955 27.6667 36.4V37.9798C27.6667 38.1115 27.6791 38.2426 27.7141 38.3696C27.8896 39.0065 28.5934 41.0111 30.5 41.0111H8.15789C7.94292 41.0111 7.72856 40.9792 7.52948 40.8981C6.53512 40.493 5 39.5401 5 38.1778V36.4Z" fill="#E58080"/>
<path d="M35.2222 14.5556H40.7777C41.8823 14.5556 42.7777 13.6601 42.7777 12.5556V10.7778C42.9352 9.83333 42.4 7 39 7C35.5999 7 35.1051 9.83333 35.2222 10.7778L35.2222 14.5556Z" fill="#D42A2A"/>
<path d="M35.5514 42C34.5818 42 33.7689 41.2145 34.0623 40.3122C34.7945 38.0603 36.9529 36.4286 39.5015 36.4286C42.0502 36.4286 44.2085 38.0603 44.9407 40.3122C45.2341 41.2145 44.4212 42 43.4516 42H35.5514Z" fill="#DD5555"/>
<path d="M42.1349 32.5714C42.1349 33.9916 40.9559 35.1429 39.5015 35.1429C38.0471 35.1429 36.8681 33.9916 36.8681 32.5714C36.8681 31.1513 38.0471 30 39.5015 30C40.9559 30 42.1349 31.1513 42.1349 32.5714Z" fill="#DD5555"/>
</svg>
