<svg width="48" height="48" viewBox="0 0 48 48" fill="none" xmlns="http://www.w3.org/2000/svg">
<g opacity="0.5">
<mask id="mask0_426_3348" style="mask-type:alpha" maskUnits="userSpaceOnUse" x="15" y="12" width="28" height="29">
<path fill-rule="evenodd" clip-rule="evenodd" d="M43 12H34V29.9444H15V40.5L34 40.5H43V12Z" fill="#D9D9D9"/>
</mask>
<g mask="url(#mask0_426_3348)">
<path d="M15 16C15 13.7909 16.7909 12 19 12H39C41.2091 12 43 13.7909 43 16V36C43 38.2091 41.2091 40 39 40H19C16.7909 40 15 38.2091 15 36V16Z" fill="#FFBC58"/>
</g>
</g>
<path fill-rule="evenodd" clip-rule="evenodd" d="M10 7C7.79086 7 6 8.79086 6 11V31C6 33.2091 7.79086 35 10 35H30C32.2091 35 34 33.2091 34 31V11C34 8.79086 32.2091 7 30 7H10ZM19.64 13.98C19.7735 13.4462 19.3739 12.9032 18.8239 12.8863L18.4954 12.8762C17.8633 12.8567 17.3267 13.3843 17.2646 14.0136L17.26 14.06C17.2403 14.2377 17.2194 14.4232 17.1977 14.6154C17.1794 14.778 17.1606 14.9454 17.1414 15.1171C16.8781 15.1191 16.611 15.12 16.34 15.12C15.6148 15.12 14.7059 15.0635 13.9367 14.9966C13.2667 14.9384 12.676 15.4714 12.6935 16.1437C12.7084 16.7159 13.1637 17.1805 13.7354 17.2095C14.5759 17.2522 15.5474 17.3 16.28 17.3C16.4863 17.3 16.698 17.2986 16.9145 17.2958C16.8388 18.1047 16.7721 18.9493 16.7293 19.791C13.9322 21.1159 11.82 23.7982 11.82 26.38C11.82 28.42 13.04 29.3 14.5 29.3C15.585 29.3 16.6699 28.9579 17.6482 28.4675C17.908 28.9098 18.4534 29.1245 18.974 28.9706C19.6235 28.7786 19.9824 28.0893 19.7954 27.4383C19.7657 27.3348 19.7364 27.2304 19.7075 27.1251C21.2453 25.8487 22.8342 23.7557 23.9174 21.0523C25.2804 21.5812 26 22.6465 26 23.84C26 25.489 24.9041 27.1103 22.3078 27.8489C21.5178 28.0736 21.0721 28.9902 21.5109 29.6844C21.7472 30.0582 22.1855 30.2602 22.6183 30.1699C26.9655 29.2628 28.48 26.6565 28.48 23.96C28.48 21.6271 26.9369 19.8309 24.5949 19.0731C24.693 18.4992 24.3382 17.9035 23.7593 17.7623C23.1288 17.6085 22.5014 18.059 22.3475 18.687C22.2261 18.6824 22.1036 18.68 21.98 18.68C21.002 18.68 19.9645 18.8075 18.995 19.0293C19.0344 18.4221 19.0879 17.815 19.1515 17.2262C21.2554 17.1259 23.5094 16.9267 25.332 16.6507C25.8584 16.571 26.2366 16.1112 26.232 15.5788C26.2259 14.8739 25.5648 14.3591 24.8723 14.4909C23.1374 14.8212 21.3768 14.9901 19.4419 15.0664C19.5055 14.6771 19.5721 14.3123 19.64 13.98ZM16.6874 22.1805C15.1817 23.2 14.18 24.7346 14.18 25.86C14.18 26.52 14.44 26.86 15.1 26.86C15.6608 26.86 16.3639 26.6251 17.099 26.1935C16.8795 24.9526 16.7224 23.573 16.6874 22.1805ZM19.1554 24.522C19.0084 23.5271 18.92 22.4337 18.92 21.2C18.92 21.1847 18.92 21.1695 18.92 21.1542C19.6981 20.9104 20.6254 20.7184 21.6855 20.7012C21.0088 22.3174 20.1183 23.5356 19.1554 24.522Z" fill="#FFBC58"/>
</svg>
