<svg width="48" height="48" viewBox="0 0 48 48" fill="none" xmlns="http://www.w3.org/2000/svg">
<mask id="mask0_407_1126" style="mask-type:alpha" maskUnits="userSpaceOnUse" x="14" y="14" width="28" height="27">
<path fill-rule="evenodd" clip-rule="evenodd" d="M42 14H33V31H14V41H33H42V14Z" fill="#D9D9D9"/>
</mask>
<g mask="url(#mask0_407_1126)">
<circle opacity="0.5" cx="29" cy="29" r="10.5" stroke="#FFA15D" stroke-width="3"/>
</g>
<path fill-rule="evenodd" clip-rule="evenodd" d="M10 7C7.79086 7 6 8.79086 6 11V31C6 33.2091 7.79086 35 10 35H30C32.2091 35 34 33.2091 34 31V11C34 8.79086 32.2091 7 30 7H10ZM20.3917 12.2709C21.096 11.5666 22.3002 12.0654 22.3002 13.0614V28.9047C22.3002 29.9007 21.096 30.3995 20.3917 29.6953L15.4431 24.7466C15.2334 24.537 15.1156 24.2526 15.1156 23.9561V18.01C15.1156 17.7135 15.2334 17.4292 15.4431 17.2195L20.3917 12.2709ZM13.3071 17.8593C13.6159 17.8593 13.8661 18.1096 13.8661 18.4183L13.8661 23.5478C13.8661 23.8565 13.6159 24.1068 13.3071 24.1068H11.9919C10.9568 24.1068 10.1176 23.2677 10.1176 22.2326V19.7336C10.1176 18.6985 10.9568 17.8593 11.9919 17.8593H13.3071ZM26.0345 19.1088C26.0345 18.4266 25.4814 17.8735 24.7992 17.8735C24.117 17.8735 23.5639 18.4266 23.5639 19.1088V22.5449C23.5639 23.2272 24.117 23.7802 24.7992 23.7802C25.4814 23.7802 26.0345 23.2272 26.0345 22.5449V19.1088ZM28.2353 15.9993C28.9175 15.9993 29.4706 16.5523 29.4706 17.2346V24.1068C29.4706 24.789 28.9175 25.3421 28.2353 25.3421C27.5531 25.3421 27 24.789 27 24.1068V17.2346C27 16.5523 27.5531 15.9993 28.2353 15.9993Z" fill="#FFA15E"/>
</svg>
