<svg width="48" height="48" viewBox="0 0 48 48" fill="none" xmlns="http://www.w3.org/2000/svg">
<path fill-rule="evenodd" clip-rule="evenodd" d="M11.7631 12.5988C10.2792 13.2913 9.22846 14.6665 8.95024 16.2802L7.50168 24.6821C7.19223 26.4769 7.88327 28.2981 9.30551 29.4359L20.6372 38.5012C22.4632 39.9621 25.058 39.9621 26.8841 38.5012L38.2257 29.428C39.6427 28.2944 40.3342 26.4822 40.0328 24.6928L38.5731 16.0298C38.2944 14.3759 37.2051 12.9719 35.6723 12.2911L23.7605 7L11.7631 12.5988ZM29.2682 12.199C28.8259 11.4986 27.8994 11.2894 27.199 11.7318C26.4986 12.1741 26.2894 13.1006 26.7318 13.801L32.0196 22.1733L23.5776 29.0073L15.9492 21.7804L21.2481 13.8321C21.7076 13.1428 21.5213 12.2115 20.8321 11.7519C20.1428 11.2924 19.2115 11.4787 18.7519 12.1679L12.7964 21.1013L10.3477 24.0397C9.81732 24.6761 9.90331 25.622 10.5397 26.1523C11.1761 26.6827 12.122 26.5967 12.6523 25.9603L14.1289 24.1884L22 31.6452V35.5C22 36.3284 22.6716 37 23.5 37C24.3284 37 25 36.3284 25 35.5V31.7156L33.7712 24.6151L34.8287 25.937C35.3462 26.5839 36.2901 26.6888 36.937 26.1713C37.5839 25.6538 37.6888 24.7099 37.1713 24.063L35.2236 21.6283L29.2682 12.199Z" fill="#6AC2FF"/>
</svg>
