<svg width="48" height="48" viewBox="0 0 48 48" fill="none" xmlns="http://www.w3.org/2000/svg">
<path fill-rule="evenodd" clip-rule="evenodd" d="M35.2222 37.2222C35.2222 40.2444 31.7593 41 30.0278 41H10.6667V34.3973H25.6888C26.2104 34.3973 26.6333 33.9744 26.6333 33.4528C26.6333 32.9312 26.2104 32.5084 25.6888 32.5084H10.6667V10.3056C10.6667 8.03889 12.8704 7.15741 13.9722 7H39V14.5556H35.2222V37.2222ZM16 24.9444C16 24.4228 16.4228 24 16.9444 24H28.2778C28.7994 24 29.2222 24.4228 29.2222 24.9444C29.2222 25.466 28.7994 25.8889 28.2778 25.8889H16.9444C16.4228 25.8889 16 25.466 16 24.9444ZM16 19.9444C16 19.4228 16.4228 19 16.9444 19H24.5C25.0216 19 25.4444 19.4228 25.4444 19.9444C25.4444 20.466 25.0216 20.8889 24.5 20.8889H16.9444C16.4228 20.8889 16 20.466 16 19.9444ZM16.9444 14C16.4228 14 16 14.4228 16 14.9444C16 15.466 16.4228 15.8889 16.9444 15.8889H28.2778C28.7994 15.8889 29.2222 15.466 29.2222 14.9444C29.2222 14.4228 28.7994 14 28.2778 14H16.9444Z" fill="#8B8B8B"/>
<path d="M5 36.4C5 35.2955 5.89543 34.4 7 34.4H25.6667C26.7712 34.4 27.6667 35.2955 27.6667 36.4V37.9798C27.6667 38.1115 27.6791 38.2426 27.7141 38.3696C27.8896 39.0065 28.5934 41.0111 30.5 41.0111H8.15789C7.94292 41.0111 7.72856 40.9792 7.52948 40.8981C6.53512 40.493 5 39.5401 5 38.1778V36.4Z" fill="#666666"/>
<path d="M35.2222 14.5556H40.7777C41.8823 14.5556 42.7777 13.6601 42.7777 12.5556V10.7778C42.9352 9.83333 42.4 7 39 7C35.5999 7 35.1051 9.83333 35.2222 10.7778L35.2222 14.5556Z" fill="#4C4C4C"/>
<rect x="30" y="30" width="15" height="15" rx="2" stroke="#F3F3F3" stroke-width="2"/>
<path d="M37.7925 34.4175L34.5525 42.0375C34.4825 42.2275 34.3725 42.3775 34.2225 42.4875C34.0825 42.5875 33.9275 42.6375 33.7575 42.6375C33.4875 42.6375 33.2875 42.5625 33.1575 42.4125C33.0275 42.2625 32.9625 42.0775 32.9625 41.8575C32.9625 41.7675 32.9775 41.6725 33.0075 41.5725L36.7425 32.6025C36.8225 32.4025 36.9425 32.2475 37.1025 32.1375C37.2725 32.0275 37.4525 31.9825 37.6425 32.0025C37.8225 32.0025 37.9875 32.0575 38.1375 32.1675C38.2975 32.2675 38.4125 32.4125 38.4825 32.6025L42.1725 41.3925C42.2225 41.5225 42.2475 41.6425 42.2475 41.7525C42.2475 42.0225 42.1575 42.2375 41.9775 42.3975C41.8075 42.5575 41.6175 42.6375 41.4075 42.6375C41.2275 42.6375 41.0625 42.5825 40.9125 42.4725C40.7725 42.3625 40.6625 42.2125 40.5825 42.0225L37.3575 34.5075L37.7925 34.4175ZM35.0175 40.2075L35.8425 38.4825H39.8925L40.1775 40.2075H35.0175Z" fill="#F3F3F3"/>
<rect x="12" y="30" width="15" height="15" rx="2" stroke="#F3F3F3" stroke-width="2"/>
<path d="M16 33.5L16 41.5" stroke="#F3F3F3" stroke-width="1.5" stroke-linecap="round" stroke-linejoin="round"/>
<path d="M19.5 33.5L19.5 41.5" stroke="#F3F3F3" stroke-width="1.5" stroke-linecap="round" stroke-linejoin="round"/>
<circle cx="23" cy="41" r="1" fill="white"/>
<rect x="21" y="12" width="15" height="15" rx="2" stroke="#F3F3F3" stroke-width="2"/>
<rect x="23" y="14" width="5" height="5" rx="2.5" fill="#DD5555"/>
<rect x="29" y="14" width="5" height="5" rx="2.5" fill="#4FE883"/>
<rect x="26" y="20" width="5" height="5" rx="2.5" fill="#0097FF"/>
</svg>
