<svg width="48" height="48" viewBox="0 0 48 48" fill="none" xmlns="http://www.w3.org/2000/svg">
<path fill-rule="evenodd" clip-rule="evenodd" d="M12 9C10.3431 9 9 10.3431 9 12V29.3871C9 31.044 10.3431 32.3871 12 32.3871H23.68C24.2168 32.3871 24.7438 32.5312 25.206 32.8042L32.3224 37.0088C33.0235 37.4231 33.8994 36.8703 33.8271 36.0591L33.597 33.4758C33.5449 32.8908 34.0057 32.3871 34.593 32.3871H36C37.6569 32.3871 39 31.0439 39 29.3871V12C39 10.3431 37.6569 9 36 9H12ZM24.0977 15.1747C24.4219 14.7996 25.0356 15.0742 24.9719 15.5659L24.4812 19.3514C24.4424 19.6505 24.6754 19.9156 24.977 19.9156H30.3151C30.7432 19.9156 30.9733 20.4186 30.6934 20.7426L24.7183 27.6566C24.3941 28.0317 23.7804 27.7571 23.8442 27.2654L24.3349 23.4799C24.3737 23.1808 24.1407 22.9156 23.839 22.9156H18.501C18.0728 22.9156 17.8427 22.4126 18.1227 22.0887L24.0977 15.1747Z" fill="#CC00FF"/>
</svg>
