<svg width="48" height="48" viewBox="0 0 48 48" fill="none" xmlns="http://www.w3.org/2000/svg">
<path d="M11.14 35C10.58 35 10.12 34.83 9.76 34.49C9.4 34.13 9.22 33.69 9.22 33.17V18.05L9.64 18.71L7.45 20.33C7.17 20.55 6.82 20.66 6.4 20.66C5.92 20.66 5.5 20.48 5.14 20.12C4.78 19.76 4.6 19.33 4.6 18.83C4.6 18.19 4.91 17.67 5.53 17.27L9.85 14.39C10.05 14.25 10.27 14.15 10.51 14.09C10.77 14.03 11.01 14 11.23 14C11.81 14 12.27 14.18 12.61 14.54C12.95 14.88 13.12 15.31 13.12 15.83V33.17C13.12 33.69 12.93 34.13 12.55 34.49C12.19 34.83 11.72 35 11.14 35ZM18.9902 27.59C18.4702 27.59 18.0302 27.42 17.6702 27.08C17.3302 26.74 17.1602 26.31 17.1602 25.79C17.1602 25.27 17.3302 24.85 17.6702 24.53C18.0302 24.19 18.4702 24.02 18.9902 24.02H24.2102C24.7302 24.02 25.1602 24.2 25.5002 24.56C25.8602 24.9 26.0402 25.33 26.0402 25.85C26.0402 26.35 25.8602 26.77 25.5002 27.11C25.1602 27.43 24.7302 27.59 24.2102 27.59H18.9902ZM36.0447 13.61C37.1247 13.61 38.0947 13.84 38.9547 14.3C39.8347 14.74 40.5747 15.35 41.1747 16.13C41.7947 16.91 42.2647 17.79 42.5847 18.77C42.9247 19.73 43.0947 20.74 43.0947 21.8C43.0947 22.48 43.0147 23.31 42.8547 24.29C42.7147 25.27 42.4547 26.31 42.0747 27.41C41.6947 28.49 41.1647 29.55 40.4847 30.59C39.8047 31.61 38.9347 32.53 37.8747 33.35C36.8347 34.17 35.5547 34.79 34.0347 35.21C33.7947 35.27 33.5647 35.3 33.3447 35.3C32.8847 35.3 32.4647 35.18 32.0847 34.94C31.7247 34.68 31.5447 34.24 31.5447 33.62C31.5447 33.16 31.6847 32.77 31.9647 32.45C32.2647 32.13 32.6547 31.9 33.1347 31.76C34.0547 31.48 34.9447 31.02 35.8047 30.38C36.6847 29.72 37.4447 28.93 38.0847 28.01C38.7247 27.07 39.1547 26.05 39.3747 24.95L40.1847 24.98C39.9247 25.3 39.5847 25.66 39.1647 26.06C38.7647 26.46 38.2647 26.81 37.6647 27.11C37.0847 27.39 36.3847 27.53 35.5647 27.53C34.2447 27.53 33.0947 27.25 32.1147 26.69C31.1547 26.11 30.4047 25.3 29.8647 24.26C29.3247 23.2 29.0547 21.97 29.0547 20.57C29.0547 19.31 29.3647 18.15 29.9847 17.09C30.6247 16.03 31.4747 15.19 32.5347 14.57C33.5947 13.93 34.7647 13.61 36.0447 13.61ZM36.0447 16.91C35.4047 16.91 34.8247 17.08 34.3047 17.42C33.8047 17.74 33.4047 18.18 33.1047 18.74C32.8047 19.28 32.6547 19.89 32.6547 20.57C32.6547 21.31 32.7947 21.96 33.0747 22.52C33.3547 23.06 33.7447 23.48 34.2447 23.78C34.7647 24.08 35.3647 24.23 36.0447 24.23C36.6847 24.23 37.2547 24.07 37.7547 23.75C38.2747 23.43 38.6847 22.99 38.9847 22.43C39.2847 21.87 39.4347 21.25 39.4347 20.57C39.4347 19.87 39.2847 19.25 38.9847 18.71C38.6847 18.15 38.2747 17.71 37.7547 17.39C37.2547 17.07 36.6847 16.91 36.0447 16.91Z" fill="#F3F3F3"/>
</svg>
