<svg width="48" height="48" viewBox="0 0 48 48" fill="none" xmlns="http://www.w3.org/2000/svg">
<path d="M19.0621 9.53451C19.3843 8.66389 20.6157 8.66389 20.9379 9.53451L23.0815 15.3277C23.1828 15.6014 23.3986 15.8172 23.6723 15.9185L29.4655 18.0621C30.3361 18.3843 30.3361 19.6157 29.4655 19.9379L23.6723 22.0815C23.3986 22.1828 23.1828 22.3986 23.0815 22.6723L20.9379 28.4655C20.6157 29.3361 19.3843 29.3361 19.0621 28.4655L16.9185 22.6723C16.8172 22.3986 16.6014 22.1828 16.3277 22.0815L10.5345 19.9379C9.66389 19.6157 9.66389 18.3843 10.5345 18.0621L16.3277 15.9185C16.6014 15.8172 16.8172 15.6014 16.9185 15.3277L19.0621 9.53451Z" fill="#CC00FF"/>
<path d="M30.5621 26.5345C30.8843 25.6639 32.1157 25.6639 32.4379 26.5345L33.6362 29.773C33.7375 30.0467 33.9533 30.2625 34.227 30.3638L37.4655 31.5621C38.3361 31.8843 38.3361 33.1157 37.4655 33.4379L34.227 34.6362C33.9533 34.7375 33.7375 34.9533 33.6362 35.227L32.4379 38.4655C32.1157 39.3361 30.8843 39.3361 30.5621 38.4655L29.3638 35.227C29.2625 34.9533 29.0467 34.7375 28.773 34.6362L25.5345 33.4379C24.6639 33.1157 24.6639 31.8843 25.5345 31.5621L28.773 30.3638C29.0467 30.2625 29.2625 30.0467 29.3638 29.773L30.5621 26.5345Z" fill="#AF00DB"/>
</svg>
