<svg width="48" height="48" viewBox="0 0 48 48" fill="none" xmlns="http://www.w3.org/2000/svg">
<path d="M33.5385 15H36C38.2091 15 40 16.7909 40 19V35C40 37.2091 38.2091 39 36 39H20C17.7909 39 16 37.2091 16 35V31.1538" stroke="#18B44D" stroke-width="4"/>
<path d="M9 11C9 9.89543 9.89543 9 11 9H31C32.1046 9 33 9.89543 33 11V31C33 32.1046 32.1046 33 31 33H11C9.89543 33 9 32.1046 9 31V11Z" stroke="#4FE883" stroke-width="4"/>
<path d="M7 27H35V31C35 33.2091 33.2091 35 31 35H11C8.79086 35 7 33.2091 7 31V27Z" fill="#4FE883"/>
<path d="M16.5499 25C15.5803 25 14.7674 24.2145 15.0608 23.3122C15.793 21.0603 17.9514 19.4286 20.5 19.4286C23.0486 19.4286 25.207 21.0603 25.9392 23.3122C26.2326 24.2145 25.4197 25 24.4501 25H16.5499Z" fill="#4FE883"/>
<path d="M23.1334 15.5714C23.1334 16.9916 21.9544 18.1429 20.5 18.1429C19.0456 18.1429 17.8666 16.9916 17.8666 15.5714C17.8666 14.1513 19.0456 13 20.5 13C21.9544 13 23.1334 14.1513 23.1334 15.5714Z" fill="#4FE883"/>
</svg>
