<svg width="48" height="48" viewBox="0 0 48 48" fill="none" xmlns="http://www.w3.org/2000/svg">
<path d="M16.3679 41C13.6354 41 11.3444 38.7443 12.1713 36.1529C14.2349 29.6859 20.3175 25 27.5 25C34.6825 25 40.7651 29.6859 42.8287 36.1529C43.6556 38.7443 41.3646 41 38.6321 41H16.3679Z" fill="#7D7D7D"/>
<path d="M35 14.5C35 18.6421 31.6421 22 27.5 22C23.3579 22 20 18.6421 20 14.5C20 10.3579 23.3579 7 27.5 7C31.6421 7 35 10.3579 35 14.5Z" fill="#FFA15E"/>
<path d="M16.3679 41C13.6354 41 11.3444 38.7443 12.1713 36.1529C14.2349 29.6859 20.3175 25 27.5 25C34.6825 25 40.7651 29.6859 42.8287 36.1529C43.6556 38.7443 41.3646 41 38.6321 41H16.3679Z" fill="#7D7D7D"/>
<path d="M35 14.5C35 18.6421 31.6421 22 27.5 22C23.3579 22 20 18.6421 20 14.5C20 10.3579 23.3579 7 27.5 7C31.6421 7 35 10.3579 35 14.5Z" fill="#FFA15E"/>
<path d="M12.8089 28.8767C11.2628 30.7329 10.0643 32.8872 9.3133 35.2409C8.62747 37.3902 9.11807 39.4495 10.252 41H8.52246C6.31884 41 4.47131 39.1673 5.13817 37.0617C6.32702 33.308 9.17003 30.2928 12.8089 28.8767Z" fill="#404040"/>
<path d="M17.2742 24.9566C14.3028 24.5983 12 22.0681 12 19C12 15.9933 14.2117 13.5031 17.0969 13.0675C17.033 13.5359 17 14.0141 17 14.5C17 18.001 18.7134 21.1018 21.3475 23.0095C19.9043 23.4989 18.5387 24.1556 17.2742 24.9566Z" fill="#CC8049"/>
</svg>
