<svg width="48" height="48" viewBox="0 0 48 48" fill="none" xmlns="http://www.w3.org/2000/svg">
<path d="M15.3146 32C13.3054 32 11.6209 30.3414 12.2289 28.4359C13.7462 23.6808 18.2187 20.2353 23.5 20.2353C28.7813 20.2353 33.2538 23.6808 34.7711 28.4359C35.3791 30.3414 33.6946 32 31.6854 32H15.3146Z" fill="#7D7D7D"/>
<path d="M29.0147 12.5147C29.0147 15.5604 26.5457 18.0294 23.5 18.0294C20.4543 18.0294 17.9853 15.5604 17.9853 12.5147C17.9853 9.46902 20.4543 7 23.5 7C26.5457 7 29.0147 9.46902 29.0147 12.5147Z" fill="#FFA15E"/>
<circle cx="23.5" cy="37.5" r="3.5" fill="#4FE883"/>
<circle cx="8.5" cy="34.5" r="3.5" fill="#4FE883"/>
<circle cx="38.5" cy="34.5" r="3.5" fill="#4FE883"/>
</svg>
