<svg width="48" height="48" viewBox="0 0 48 48" fill="none" xmlns="http://www.w3.org/2000/svg">
<path d="M19 35C19 34.4477 19.4477 34 20 34H28C28.5523 34 29 34.4477 29 35V38C29 39.6569 27.6569 41 26 41H22C20.3431 41 19 39.6569 19 38V35Z" fill="#FFA924"/>
<path d="M30.1048 32C30.664 32 31.2 31.7681 31.5676 31.3468C34.4666 28.0243 37 23.7735 37 20.125C37 12.8763 31.1797 7 24 7C16.8203 7 11 12.8763 11 20.125C11 23.7735 13.5334 28.0243 16.4324 31.3468C16.8 31.7681 17.336 32 17.8952 32H30.1048Z" fill="#FFBC58"/>
</svg>
