<svg width="48" height="48" viewBox="0 0 48 48" fill="none" xmlns="http://www.w3.org/2000/svg">
<path fill-rule="evenodd" clip-rule="evenodd" d="M13.8524 38C12.2369 38 10.9115 36.7207 10.8543 35.1063L10.5266 25.8588C12.7343 25.7805 14.5875 27.5068 14.6657 29.7146L14.8176 34H19.3738C21.583 34 23.3738 35.7909 23.3738 38H13.8524ZM10.4378 23.3537C12.6455 23.2755 14.3719 21.4223 14.2936 19.2146L14.1443 15H18.8198C21.0289 15 22.8198 13.2091 22.8198 11H13.1082C11.4097 11 10.0499 12.4088 10.1101 14.1062L10.4378 23.3537ZM26.2429 11C26.2429 13.2091 28.0338 15 30.2429 15H34.9537L34.9504 19.2492C34.9487 21.4584 36.7381 23.2506 38.9473 23.2523L38.9545 14.0023C38.9558 12.3446 37.6123 11 35.9545 11H26.2429ZM38.9453 25.7523C36.7362 25.7506 34.9439 27.5401 34.9422 29.7492L34.9389 34H30.4167C28.2075 34 26.4167 35.7909 26.4167 38H35.9381C37.594 38 38.9368 36.6583 38.9381 35.0023L38.9453 25.7523Z" fill="#8B8B8B"/>
</svg>
