<svg width="48" height="48" viewBox="0 0 48 48" fill="none" xmlns="http://www.w3.org/2000/svg">
<path d="M34.7677 19.7302C36.5983 19.7302 38.0028 21.3556 37.7364 23.1667L35.4903 38.4363C35.2738 39.9087 34.0108 40.9997 32.5226 40.9998H29.7335V19.7302H34.7677Z" fill="#C99547"/>
<path fill-rule="evenodd" clip-rule="evenodd" d="M25.6414 11C22.5171 11 19.9843 13.4624 19.9843 16.5C19.9843 17.3284 19.2935 18 18.4414 18C17.5893 18 16.3843 18 16.3843 18C16.3843 13.3056 20.8129 8 25.6414 8C30.47 8 34.3843 11.8056 34.3843 16.5C34.3843 17.3284 33.6935 18 32.8414 18C31.9893 18 30.7843 18 30.7843 18C30.7843 14.9624 28.7658 11 25.6414 11Z" fill="#C99547"/>
<path fill-rule="evenodd" clip-rule="evenodd" d="M23.3843 11C20.168 11 17.5608 13.4624 17.5608 16.5C17.5608 17.3284 16.8497 18 15.9725 18C15.0954 18 14.3843 17.3284 14.3843 16.5C14.3843 11.8056 18.4137 8 23.3843 8C28.3549 8 32.3843 11.8056 32.3843 16.5C32.3843 17.3284 31.6732 18 30.7961 18C29.9189 18 29.2078 17.3284 29.2078 16.5C29.2078 13.4624 26.6005 11 23.3843 11Z" fill="#FFBC58"/>
<path d="M31.0504 20C32.881 20 34.2845 21.6254 34.0182 23.4365L31.7731 38.7061C31.5566 40.1783 30.2933 41.2693 28.8053 41.2695H14.7194C13.2311 41.2695 11.9671 40.1785 11.7506 38.7061L9.50549 23.4365C9.23915 21.6254 10.6427 20.0001 12.4733 20H31.0504ZM26.5426 22.4844C25.7144 22.4846 25.0426 23.1561 25.0426 23.9844C25.0425 25.5052 23.8096 26.7383 22.2887 26.7383C20.768 26.7381 19.5349 25.5051 19.5348 23.9844C19.5348 23.1559 18.8632 22.4844 18.0348 22.4844C17.2065 22.4845 16.5348 23.1561 16.5348 23.9844C16.5349 27.162 19.1111 29.7381 22.2887 29.7383C25.4664 29.7383 28.0425 27.1621 28.0426 23.9844C28.0426 23.1559 27.371 22.4844 26.5426 22.4844Z" fill="#FFBC58"/>
</svg>