<svg width="48" height="48" viewBox="0 0 48 48" fill="none" xmlns="http://www.w3.org/2000/svg">
<circle cx="24" cy="24" r="5" fill="#DDA755"/>
<path d="M18 15C18 15 13 17.8235 13 24C13 30.1765 18 33 18 33" stroke="#DDA755" stroke-width="4" stroke-linecap="round" stroke-linejoin="round"/>
<path d="M14 9C14 9 6 13.7059 6 24C6 34.2941 14 39 14 39" stroke="#DDA755" stroke-width="4" stroke-linecap="round" stroke-linejoin="round"/>
<path d="M34.5639 29.6503C34.6276 29.1586 34.0139 28.8839 33.6897 29.2591L27.7146 36.1731C27.4347 36.497 27.6648 37 28.0929 37H33.431C33.7327 37 33.9656 37.2651 33.9269 37.5643L33.4361 41.3497C33.3724 41.8414 33.9861 42.1161 34.3103 41.7409L40.2854 34.8269C40.5653 34.503 40.3352 34 39.9071 34H34.569C34.2673 34 34.0344 33.7349 34.0731 33.4357L34.5639 29.6503Z" fill="#DDA755"/>
<path d="M35.014 7.27615C34.062 6.71611 32.8362 7.03391 32.2761 7.98597C31.6603 9.14566 31.8922 9.73617 32.9827 10.722C32.9889 10.7258 33.0023 10.734 33.0224 10.7467C33.0626 10.7721 33.1294 10.8151 33.219 10.8761C33.3984 10.9981 33.668 11.1909 33.998 11.4558C34.6599 11.9871 35.5532 12.7991 36.4473 13.9004C38.2274 16.0927 40 19.4113 40 24C40 26.7931 39.3432 29.1156 38.4278 31H39.9071C40.9098 31 41.7573 31.3942 42.3679 32.0037C43.3342 29.783 44 27.1192 44 24C44 18.2946 41.7726 14.1132 39.5526 11.3791C38.4468 10.0171 37.3401 9.00922 36.5019 8.33647C36.082 7.99936 35.7266 7.74413 35.4685 7.56859C35.3394 7.48075 35.2343 7.41266 35.1573 7.36405C35.1188 7.33974 35.0872 7.32028 35.0632 7.30565L35.0328 7.2873L35.022 7.28083L35.0176 7.27826L35.0157 7.27715L35.0632 7.30565L35.014 7.27615Z" fill="#DDA755"/>
<path d="M30.9834 13.2585C30.0216 12.7153 28.8016 13.0547 28.2585 14.0165C27.7174 14.9747 28.0522 16.1891 29.0057 16.7353L29.0198 16.7437C29.0381 16.7548 29.0728 16.7762 29.1214 16.808C29.2189 16.8717 29.3713 16.9761 29.5605 17.1219C29.9409 17.415 30.457 17.8653 30.9729 18.4754C31.9973 19.6865 33 21.495 33 24C33 24.8669 32.8799 25.6504 32.6804 26.3546C34.0388 25.7602 35.6181 26.1503 36.6062 27.1617C36.8532 26.2032 37 25.1496 37 24C37 20.3285 35.5027 17.637 34.0271 15.8923C33.293 15.0244 32.5591 14.3828 32.002 13.9535C31.7224 13.738 31.4842 13.5736 31.3083 13.4587C31.2202 13.4012 31.1474 13.3559 31.0925 13.3227C31.0651 13.306 31.042 13.2924 31.0238 13.2817L30.9999 13.2679L30.9908 13.2626L30.9869 13.2604L30.9834 13.2585Z" fill="#DDA755"/>
</svg>
