<svg width="48" height="48" viewBox="0 0 48 48" fill="none" xmlns="http://www.w3.org/2000/svg">
<path fill-rule="evenodd" clip-rule="evenodd" d="M35.2222 37.2222C35.2222 40.2444 31.7593 41 30.0278 41H10.6667V34.3973H25.6888C26.2104 34.3973 26.6333 33.9744 26.6333 33.4528C26.6333 32.9312 26.2104 32.5084 25.6888 32.5084H10.6667V10.3056C10.6667 8.03889 12.8704 7.15741 13.9722 7H39V14.5556H35.2222V37.2222ZM16 24.9444C16 24.4228 16.4228 24 16.9444 24H28.2778C28.7994 24 29.2222 24.4228 29.2222 24.9444C29.2222 25.466 28.7994 25.8889 28.2778 25.8889H16.9444C16.4228 25.8889 16 25.466 16 24.9444ZM16 19.9444C16 19.4228 16.4228 19 16.9444 19H24.5C25.0216 19 25.4444 19.4228 25.4444 19.9444C25.4444 20.466 25.0216 20.8889 24.5 20.8889H16.9444C16.4228 20.8889 16 20.466 16 19.9444ZM16.9444 14C16.4228 14 16 14.4228 16 14.9444C16 15.466 16.4228 15.8889 16.9444 15.8889H28.2778C28.7994 15.8889 29.2222 15.466 29.2222 14.9444C29.2222 14.4228 28.7994 14 28.2778 14H16.9444Z" fill="#66C1FF"/>
<path d="M5 36.4C5 35.2955 5.89543 34.4 7 34.4H25.6667C26.7712 34.4 27.6667 35.2955 27.6667 36.4V37.9798C27.6667 38.1115 27.6791 38.2426 27.7141 38.3696C27.8896 39.0065 28.5934 41.0111 30.5 41.0111H8.15789C7.94292 41.0111 7.72856 40.9792 7.52948 40.8981C6.53512 40.493 5 39.5401 5 38.1778V36.4Z" fill="#83CCFF"/>
<path d="M35.2222 14.5556H40.7777C41.8823 14.5556 42.7777 13.6601 42.7777 12.5556V10.7778C42.9352 9.83333 42.4 7 39 7C35.5999 7 35.1051 9.83333 35.2222 10.7778L35.2222 14.5556Z" fill="#0079CC"/>
</svg>
