<svg width="48" height="48" viewBox="0 0 48 48" fill="none" xmlns="http://www.w3.org/2000/svg">
<path fill-rule="evenodd" clip-rule="evenodd" d="M22.3938 9.99311C21.8249 9.36096 21.0144 9 20.1639 9H10C8.34315 9 7 10.3431 7 12V36.5C7 38.1569 8.34315 39.5 10 39.5H39C40.6569 39.5 42 38.1569 42 36.5V17C42 15.3431 40.6569 14 39 14H27.3361C26.4856 14 25.6751 13.639 25.1062 13.0069L22.3938 9.99311ZM30.1062 33.1062C30.1062 34.5611 28.5005 34.9651 27.6089 34.9929C27.6531 34.9976 27.6987 35 27.7458 35H16.5784C16.471 35 16.3638 34.9841 16.2643 34.9435C15.7673 34.741 15 34.2647 15 33.5838V32.6952C15 32.1431 15.4476 31.6955 15.9997 31.6955H17.8324V31.6782C17.8867 31.6874 17.9425 31.6921 17.9993 31.6921H25.0007C25.5526 31.6921 26 31.2447 26 30.6928C26 30.1409 25.5526 29.6934 25.0007 29.6934H17.9993C17.9425 29.6934 17.8867 29.6982 17.8324 29.7073V19.6522C17.8324 18.5193 18.9339 18.0787 19.4846 18H31.9944C31.9944 18 31.9944 18 31.9944 18C33.6939 18 33.9614 19.4162 33.8827 19.8883V20.7769C33.8827 21.329 33.4351 21.7765 32.883 21.7765L31.9944 21.7765H30.1062V33.1062Z" fill="#66C1FF"/>
</svg>
