<svg width="48" height="48" viewBox="0 0 48 48" fill="none" xmlns="http://www.w3.org/2000/svg">
<path d="M8.5 11C8.5 9.61929 9.61929 8.5 11 8.5H37C38.3807 8.5 39.5 9.61929 39.5 11V37C39.5 38.3807 38.3807 39.5 37 39.5H11C9.61929 39.5 8.5 38.3807 8.5 37V11Z" stroke="#0079CC" stroke-width="3"/>
<path fill-rule="evenodd" clip-rule="evenodd" d="M11 9C8.79086 9 7 10.7909 7 13V17H41V13C41 10.7909 39.2091 9 37 9H11ZM30 12.5C30 11.6716 30.6716 11 31.5 11C32.3284 11 33 11.6716 33 12.5C33 13.3284 32.3284 14 31.5 14C30.6716 14 30 13.3284 30 12.5ZM35 12.5C35 11.6716 35.6716 11 36.5 11C37.3284 11 38 11.6716 38 12.5C38 13.3284 37.3284 14 36.5 14C35.6716 14 35 13.3284 35 12.5Z" fill="#0079CC"/>
<path d="M40.954 40.7557C40.954 42.5511 38.8968 43 37.8682 43H26.3664V24.7655C26.3664 23.4189 27.6755 22.8952 28.3301 22.8017H43.1983V27.2902H40.954V40.7557Z" fill="#B7E2FF"/>
<path d="M40.954 27.2902H44.2544C44.9106 27.2902 45.4425 26.7583 45.4425 26.1021V25.046C45.536 24.4849 45.2181 22.8017 43.1982 22.8017C41.1784 22.8017 40.8845 24.4849 40.954 25.046L40.954 27.2902Z" fill="#0079CC"/>
<path d="M23 40.2607C23 39.6045 23.5319 39.0726 24.1881 39.0726H35.2774C35.9336 39.0726 36.4655 39.6045 36.4655 40.2607V41.1992C36.4655 41.2774 36.4729 41.3553 36.4937 41.4307C36.5979 41.8091 37.0161 43 38.1487 43H24.876C24.7483 43 24.6209 42.9811 24.5027 42.9329C23.912 42.6922 23 42.1261 23 41.3168V40.2607Z" fill="#66C1FF"/>
<rect x="29.7327" y="27.2902" width="7.85488" height="1.12213" rx="0.561063" fill="#66C1FF"/>
<rect x="29.7327" y="32.9009" width="7.85488" height="1.12213" rx="0.561063" fill="#66C1FF"/>
<rect x="29.7327" y="30.0956" width="5.61063" height="1.12213" rx="0.561063" fill="#66C1FF"/>
</svg>
