<svg width="48" height="48" viewBox="0 0 48 48" fill="none" xmlns="http://www.w3.org/2000/svg">
<path d="M26.3799 8.41421C27.6398 7.15428 29.7941 8.04662 29.7941 9.82843V38.1716C29.7941 39.9534 27.6398 40.8457 26.3799 39.5858L17.5269 30.7328C17.1519 30.3578 16.9412 29.8491 16.9412 29.3186V18.6814C16.9412 18.1509 17.1519 17.6422 17.5269 17.2672L26.3799 8.41421Z" fill="#CC00FF"/>
<path d="M13.7059 18.4118C14.2582 18.4118 14.7059 18.8595 14.7059 19.4118L14.7059 28.5882C14.7059 29.1405 14.2582 29.5882 13.7059 29.5882L11.3529 29.5882C9.50115 29.5882 7.99999 28.0871 7.99999 26.2353L7.99999 21.7647C7.99999 19.9129 9.50115 18.4118 11.3529 18.4118L13.7059 18.4118Z" fill="#CC00FF"/>
<path d="M34.2647 20.6471V26.7941" stroke="#EEAAFF" stroke-width="3" stroke-linecap="round"/>
<path d="M40.4118 17.2941L40.4118 29.5882" stroke="#EEAAFF" stroke-width="3" stroke-linecap="round"/>
</svg>
