<svg width="48" height="48" viewBox="0 0 48 48" fill="none" xmlns="http://www.w3.org/2000/svg">
<g clip-path="url(#clip0_373_1342)">
<path d="M34.1589 32.1589C42.0039 24.3139 41.0097 17.8623 41.0097 17.8623C41.0097 17.8623 35.5523 16.498 27.0251 25.0252C18.498 33.5523 19.8623 39.0097 19.8623 39.0097C19.8623 39.0097 26.3139 40.0039 34.1589 32.1589Z" fill="#FFBC58" fill-opacity="0.5"/>
<path d="M19.8623 39.0097L10.9941 8.99412L41.0097 17.8623M19.8623 39.0097C19.8623 39.0097 26.3139 40.0039 34.1589 32.1589C42.0039 24.3139 41.0097 17.8623 41.0097 17.8623M19.8623 39.0097C19.8623 39.0097 18.498 33.5523 27.0251 25.0252C35.5523 16.498 41.0097 17.8623 41.0097 17.8623" stroke="#FFBC58" stroke-width="3.91946" stroke-linecap="round" stroke-linejoin="round"/>
</g>
<defs>
<clipPath id="clip0_373_1342">
<rect width="48" height="48" fill="white"/>
</clipPath>
</defs>
</svg>
