<svg width="48" height="48" viewBox="0 0 48 48" fill="none" xmlns="http://www.w3.org/2000/svg">
<rect x="9" y="9" width="30" height="30" rx="2" stroke="#F3F3F3" stroke-width="4"/>
<path d="M23.96 18.71L17.48 33.95C17.34 34.33 17.12 34.63 16.82 34.85C16.54 35.05 16.23 35.15 15.89 35.15C15.35 35.15 14.95 35 14.69 34.7C14.43 34.4 14.3 34.03 14.3 33.59C14.3 33.41 14.33 33.22 14.39 33.02L21.86 15.08C22.02 14.68 22.26 14.37 22.58 14.15C22.92 13.93 23.28 13.84 23.66 13.88C24.02 13.88 24.35 13.99 24.65 14.21C24.97 14.41 25.2 14.7 25.34 15.08L32.72 32.66C32.82 32.92 32.87 33.16 32.87 33.38C32.87 33.92 32.69 34.35 32.33 34.67C31.99 34.99 31.61 35.15 31.19 35.15C30.83 35.15 30.5 35.04 30.2 34.82C29.92 34.6 29.7 34.3 29.54 33.92L23.09 18.89L23.96 18.71ZM18.41 30.29L20.06 26.84H28.16L28.73 30.29H18.41Z" fill="#F3F3F3"/>
</svg>
