<svg width="48" height="48" viewBox="0 0 48 48" fill="none" xmlns="http://www.w3.org/2000/svg">
<path fill-rule="evenodd" clip-rule="evenodd" d="M19.3748 11.6077C19.1634 11.864 18.8385 11.9986 18.5078 11.9668L12.4789 11.3879C11.8532 11.3278 11.3279 11.8532 11.3879 12.4789L11.9668 18.5078C11.9986 18.8385 11.864 19.1634 11.6077 19.3748L6.93534 23.2285C6.45039 23.6285 6.45039 24.3714 6.93534 24.7714L11.6077 28.6251C11.864 28.8365 11.9986 29.1614 11.9668 29.4922L11.388 35.521C11.3279 36.1468 11.8532 36.6721 12.479 36.612L18.5078 36.0331C18.8386 36.0014 19.1635 36.136 19.3749 36.3923L23.2285 41.0646C23.6285 41.5496 24.3715 41.5496 24.7715 41.0646L28.6252 36.3923C28.8366 36.136 29.1615 36.0014 29.4922 36.0331L35.5211 36.612C36.1468 36.6721 36.6721 36.1468 36.6121 35.521L36.0332 29.4921C36.0014 29.1614 36.136 28.8365 36.3923 28.6251L41.0647 24.7714C41.5496 24.3714 41.5496 23.6285 41.0647 23.2285L36.3923 19.3748C36.136 19.1634 36.0014 18.8385 36.0332 18.5078L36.612 12.4789C36.6721 11.8532 36.1468 11.3278 35.521 11.3879L29.4922 11.9668C29.1615 11.9986 28.8365 11.864 28.6251 11.6077L24.7715 6.93531C24.3715 6.45036 23.6285 6.45036 23.2285 6.93531L19.3748 11.6077ZM24 33C28.9706 33 33 28.9705 33 24C33 19.0294 28.9706 15 24 15C19.0294 15 15 19.0294 15 24C15 28.9705 19.0294 33 24 33Z" fill="#FFBC58"/>
<circle cx="24" cy="24" r="7" fill="#FFA924"/>
</svg>
