<svg width="48" height="48" viewBox="0 0 48 48" fill="none" xmlns="http://www.w3.org/2000/svg">
<path d="M12.31 25.7027L13.7786 23.4331C14.9608 21.6061 17.6338 21.6061 18.816 23.4331L20.2846 25.7027L16.2973 26.2162L13.7297 28.7838L12.31 25.7027Z" fill="#6AC2FF"/>
<path d="M5 37L12.31 25.7027M27.5946 37L20.2846 25.7027M12.31 25.7027L13.7786 23.4331C14.9608 21.6061 17.6338 21.6061 18.816 23.4331L20.2846 25.7027M12.31 25.7027L13.7297 28.7838L16.2973 26.2162L20.2846 25.7027" stroke="#6AC2FF" stroke-width="3" stroke-linecap="round"/>
<path d="M23.4865 19.027L24.4006 16.7418C25.3072 14.4753 28.3969 14.1827 29.7128 16.2388L32.3672 20.3863L28.6216 22.1081L25.027 18.5135L23.4865 19.027Z" fill="#559BCC"/>
<path d="M43 37L32.3672 20.3863M32.3672 20.3863L29.7128 16.2388C28.3969 14.1827 25.3072 14.4753 24.4006 16.7418L23.4865 19.027L25.027 18.5135L28.6216 22.1081L32.3672 20.3863Z" stroke="#559BCC" stroke-width="3" stroke-linecap="round"/>
</svg>
