<svg width="48" height="48" viewBox="0 0 48 48" fill="none" xmlns="http://www.w3.org/2000/svg">
<path opacity="0.45" d="M24.0699 15.565L14.3499 38.425C14.1399 38.995 13.8099 39.445 13.3599 39.775C12.9399 40.075 12.4749 40.225 11.9649 40.225C11.1549 40.225 10.5549 40 10.1649 39.55C9.77488 39.1 9.57988 38.545 9.57988 37.885C9.57988 37.615 9.62488 37.33 9.71488 37.03L20.9199 10.12C21.1599 9.52 21.5199 9.055 21.9999 8.725C22.5099 8.395 23.0499 8.26 23.6199 8.32C24.1599 8.32 24.6549 8.485 25.1049 8.815C25.5849 9.115 25.9299 9.55 26.1399 10.12L37.2099 36.49C37.3599 36.88 37.4349 37.24 37.4349 37.57C37.4349 38.38 37.1649 39.025 36.6249 39.505C36.1149 39.985 35.5449 40.225 34.9149 40.225C34.3749 40.225 33.8799 40.06 33.4299 39.73C33.0099 39.4 32.6799 38.95 32.4399 38.38L22.7649 15.835L24.0699 15.565ZM15.7449 32.935L18.2199 27.76H30.3699L31.2249 32.935H15.7449Z" fill="#6AC2FF"/>
<path d="M24.0699 14.565L14.3499 37.425C14.1399 37.995 13.8099 38.445 13.3599 38.775C12.9399 39.075 12.4749 39.225 11.9649 39.225C11.1549 39.225 10.5549 39 10.1649 38.55C9.77488 38.1 9.57988 37.545 9.57988 36.885C9.57988 36.615 9.62488 36.33 9.71488 36.03L20.9199 9.12C21.1599 8.52 21.5199 8.055 21.9999 7.725C22.5099 7.395 23.0499 7.26 23.6199 7.32C24.1599 7.32 24.6549 7.485 25.1049 7.815C25.5849 8.115 25.9299 8.55 26.1399 9.12L37.2099 35.49C37.3599 35.88 37.4349 36.24 37.4349 36.57C37.4349 37.38 37.1649 38.025 36.6249 38.505C36.1149 38.985 35.5449 39.225 34.9149 39.225C34.3749 39.225 33.8799 39.06 33.4299 38.73C33.0099 38.4 32.6799 37.95 32.4399 37.38L22.7649 14.835L24.0699 14.565ZM15.7449 31.935L18.2199 26.76H30.3699L31.2249 31.935H15.7449Z" fill="#6AC2FF"/>
</svg>
