<svg width="48" height="48" viewBox="0 0 48 48" fill="none" xmlns="http://www.w3.org/2000/svg">
<path d="M19.7974 18.6404L26.9904 22.7933L17.6929 38.8969C16.8645 40.3318 15.0297 40.8234 13.5949 39.995L11.5981 38.8421C10.1632 38.0137 9.67157 36.1789 10.5 34.744L19.7974 18.6404Z" fill="#DD8E55"/>
<path d="M18.5814 16.5079C19.4098 15.073 21.2446 14.5814 22.6795 15.4098L28.4961 18.7681C29.931 19.5965 30.4226 21.4313 29.5942 22.8661L28.3554 25.0119C27.5269 26.4467 25.6922 26.9384 24.2573 26.1099L18.4406 22.7517C17.0057 21.9233 16.5141 20.0885 17.3425 18.6536L18.5814 16.5079Z" fill="#5F7681"/>
<path d="M18.8653 11.7772C19.6937 10.3423 21.5285 9.85071 22.9634 10.6791L33.2136 16.5971L28.4449 24.8567L18.1947 18.9388C16.7598 18.1103 16.2682 16.2756 17.0966 14.8407L18.8653 11.7772Z" fill="#78909C"/>
<path d="M16.1091 9.68C16.8166 8.45468 18.3834 8.03486 19.6087 8.74229L23.1185 10.7687L20.5567 15.206L17.0468 13.1796C15.8215 12.4721 15.4017 10.9053 16.1091 9.68Z" fill="#78909C"/>
<path d="M33.3032 16.442C34.1316 15.0071 35.9664 14.5155 37.4013 15.3439L39.547 16.5827C40.9819 17.4112 41.4735 19.2459 40.6451 20.6808L35.6973 29.2507C34.8688 30.6856 33.0341 31.1772 31.5992 30.3488L29.4534 29.1099C28.0186 28.2815 27.5269 26.4467 28.3554 25.0119L33.3032 16.442Z" fill="#78909C"/>
</svg>
