<svg width="48" height="48" viewBox="0 0 48 48" fill="none" xmlns="http://www.w3.org/2000/svg">
<path opacity="0.3" d="M13.0869 16.4024C13.3824 14.4462 15.0636 13 17.042 13H31.5555C34.0028 13 35.8763 15.1779 35.5107 17.5976L33.3953 31.5976C33.0997 33.5538 31.4185 35 29.4402 35H14.9266C12.4794 35 10.6059 32.8221 10.9715 30.4024L13.0869 16.4024Z" fill="#FFBC58"/>
<path opacity="0.1" d="M9.194 16.4024C9.48958 14.4462 11.1708 13 13.1491 13H27.6627C30.1099 13 31.9834 15.1779 31.6178 17.5976L29.5024 31.5976C29.2068 33.5538 27.5257 35 25.5473 35H11.0337C8.58652 35 6.713 32.8221 7.07862 30.4024L9.194 16.4024Z" fill="#FFBC58"/>
<path d="M18.2297 16.4024C18.5253 14.4462 20.2065 13 22.1848 13H36.6984C39.1456 13 41.0191 15.1779 40.6535 17.5976L38.5381 31.5976C38.2426 33.5538 36.5614 35 34.583 35H20.0695C17.6222 35 15.7487 32.8221 16.1143 30.4024L18.2297 16.4024Z" fill="#FFBC58"/>
</svg>
