<svg width="48" height="48" viewBox="0 0 48 48" fill="none" xmlns="http://www.w3.org/2000/svg">
<path fill-rule="evenodd" clip-rule="evenodd" d="M12 9.5C10.6193 9.5 9.5 10.6193 9.5 12V18C9.5 18.8284 8.82843 19.5 8 19.5C7.17157 19.5 6.5 18.8284 6.5 18V12C6.5 8.96243 8.96243 6.5 12 6.5H18C18.8284 6.5 19.5 7.17157 19.5 8C19.5 8.82843 18.8284 9.5 18 9.5H12ZM28.5 8C28.5 7.17157 29.1716 6.5 30 6.5H36C39.0376 6.5 41.5 8.96243 41.5 12V18C41.5 18.8284 40.8284 19.5 40 19.5C39.1716 19.5 38.5 18.8284 38.5 18V12C38.5 10.6193 37.3807 9.5 36 9.5H30C29.1716 9.5 28.5 8.82843 28.5 8ZM8 28.5C8.82843 28.5 9.5 29.1716 9.5 30V36C9.5 37.3807 10.6193 38.5 12 38.5H18C18.8284 38.5 19.5 39.1716 19.5 40C19.5 40.8284 18.8284 41.5 18 41.5H12C8.96243 41.5 6.5 39.0376 6.5 36V30C6.5 29.1716 7.17157 28.5 8 28.5ZM40 28.5C40.8284 28.5 41.5 29.1716 41.5 30V36C41.5 39.0376 39.0376 41.5 36 41.5H30C29.1716 41.5 28.5 40.8284 28.5 40C28.5 39.1716 29.1716 38.5 30 38.5H36C37.3807 38.5 38.5 37.3807 38.5 36V30C38.5 29.1716 39.1716 28.5 40 28.5Z" fill="#777777"/>
<path d="M19.4658 34.2475C17.2981 34.2475 16.2143 33.1636 16.2143 30.9959V26.348C16.2143 25.5367 15.8153 25.1311 15.0174 25.1311C14.7248 25.1311 14.4788 25.038 14.2793 24.8519C14.0931 24.6657 14 24.4263 14 24.1337C14 23.8278 14.0931 23.5818 14.2793 23.3956C14.4788 23.2094 14.7248 23.1164 15.0174 23.1164C15.8153 23.1164 16.2143 22.7107 16.2143 21.8995V17.2516C16.2143 15.0839 17.2981 14 19.4658 14C19.7584 14 19.9978 14.0997 20.184 14.2992C20.3701 14.4987 20.4632 14.7447 20.4632 15.0373C20.4632 15.3299 20.3701 15.5693 20.184 15.7554C19.9978 15.9416 19.7584 16.0347 19.4658 16.0347C18.6546 16.0347 18.249 16.4403 18.249 17.2516V21.8995C18.249 22.365 18.1958 22.7839 18.0894 23.1563C17.983 23.5286 17.8234 23.8544 17.6106 24.1337C18.0362 24.679 18.249 25.4171 18.249 26.348V30.9959C18.249 31.8071 18.6546 32.2128 19.4658 32.2128C19.7584 32.2128 19.9978 32.3059 20.184 32.492C20.3701 32.6782 20.4632 32.9242 20.4632 33.2301C20.4632 33.5227 20.3701 33.7621 20.184 33.9483C19.9978 34.1477 19.7584 34.2475 19.4658 34.2475Z" fill="#8B8B8B"/>
<path d="M28.5342 34.2475C28.2416 34.2475 28.0022 34.1477 27.816 33.9483C27.6299 33.7621 27.5368 33.5227 27.5368 33.2301C27.5368 32.9242 27.6299 32.6782 27.816 32.492C28.0022 32.3059 28.2416 32.2128 28.5342 32.2128C29.3454 32.2128 29.751 31.8071 29.751 30.9959V26.348C29.751 25.4171 29.9638 24.679 30.3894 24.1337C30.1766 23.8544 30.017 23.5286 29.9106 23.1563C29.8042 22.7839 29.751 22.365 29.751 21.8995V17.2516C29.751 16.4403 29.3454 16.0347 28.5342 16.0347C28.2416 16.0347 28.0022 15.9416 27.816 15.7554C27.6299 15.5693 27.5368 15.3299 27.5368 15.0373C27.5368 14.7447 27.6299 14.4987 27.816 14.2992C28.0022 14.0997 28.2416 14 28.5342 14C30.7019 14 31.7857 15.0839 31.7857 17.2516V21.8995C31.7857 22.7107 32.1847 23.1164 32.9826 23.1164C33.2752 23.1164 33.5146 23.2094 33.7008 23.3956C33.9003 23.5818 34 23.8278 34 24.1337C34 24.4263 33.9003 24.6657 33.7008 24.8519C33.5146 25.038 33.2752 25.1311 32.9826 25.1311C32.1847 25.1311 31.7857 25.5367 31.7857 26.348V30.9959C31.7857 33.1636 30.7019 34.2475 28.5342 34.2475Z" fill="#8B8B8B"/>
</svg>
