<svg width="48" height="48" viewBox="0 0 48 48" fill="none" xmlns="http://www.w3.org/2000/svg">
<path fill-rule="evenodd" clip-rule="evenodd" d="M11 7C8.79086 7 7 8.79086 7 11V37C7 39.2091 8.79086 41 11 41H37C39.2091 41 41 39.2091 41 37V11C41 8.79086 39.2091 7 37 7H11ZM23.4886 19.8187L20.5031 26.84H26.5017L23.4886 19.8187ZM27.9822 30.29L29.54 33.92C29.7 34.3 29.92 34.6 30.2 34.82C30.5 35.04 30.83 35.15 31.19 35.15C31.61 35.15 31.99 34.99 32.33 34.67C32.69 34.35 32.87 33.92 32.87 33.38C32.87 33.16 32.82 32.92 32.72 32.66L25.34 15.08C25.2 14.7 24.97 14.41 24.65 14.21C24.35 13.99 24.02 13.88 23.66 13.88C23.28 13.84 22.92 13.93 22.58 14.15C22.26 14.37 22.02 14.68 21.86 15.08L14.39 33.02C14.33 33.22 14.3 33.41 14.3 33.59C14.3 34.03 14.43 34.4 14.69 34.7C14.95 35 15.35 35.15 15.89 35.15C16.23 35.15 16.54 35.05 16.82 34.85C17.12 34.63 17.34 34.33 17.48 33.95L19.0362 30.29H27.9822Z" fill="#4FE883"/>
</svg>
