<svg width="48" height="48" viewBox="0 0 48 48" fill="none" xmlns="http://www.w3.org/2000/svg">
<path d="M28 18C31.3137 18 34 20.6863 34 24C34 27.3137 31.3137 30 28 30C24.6863 30 22 27.3137 22 24C22 20.6863 24.6863 18 28 18Z" fill="#4FE883"/>
<path fill-rule="evenodd" clip-rule="evenodd" d="M19.223 22C19.0771 22.6432 19 23.3126 19 24C19 24.6874 19.0771 25.3568 19.223 26H9C7.89543 26 7 25.1046 7 24C7 22.8954 7.89543 22 9 22L19.223 22ZM22.3414 22H33.6586C33.8797 22.6256 34 23.2987 34 24C34 24.7013 33.8797 25.3744 33.6586 26H22.3414C22.1203 25.3744 22 24.7013 22 24C22 23.2987 22.1203 22.6256 22.3414 22ZM36.777 26C36.9229 25.3568 37 24.6874 37 24C37 23.3126 36.9229 22.6432 36.777 22L39 22C40.1046 22 41 22.8954 41 24C41 25.1046 40.1046 26 39 26H36.777Z" fill="#4FE883"/>
</svg>
