<svg width="48" height="48" viewBox="0 0 48 48" fill="none" xmlns="http://www.w3.org/2000/svg">
<path d="M30.0176 28.866C30.0176 32.1797 27.3313 34.866 24.0176 34.866C20.7039 34.866 18.0176 32.1797 18.0176 28.866C18.0176 25.5523 20.7039 22.866 24.0176 22.866C27.3313 22.866 30.0176 25.5523 30.0176 28.866Z" fill="#4FE883"/>
<path fill-rule="evenodd" clip-rule="evenodd" d="M26.0176 20.089C25.3744 19.9431 24.705 19.866 24.0176 19.866C23.3302 19.866 22.6609 19.9431 22.0176 20.089L22.0176 8.86603C22.0176 7.76146 22.9131 6.86603 24.0176 6.86603C25.1222 6.86603 26.0176 7.76146 26.0176 8.86603L26.0176 20.089ZM26.0176 23.2074L26.0176 34.5246C25.3921 34.7457 24.7189 34.866 24.0176 34.866C23.3164 34.866 22.6432 34.7457 22.0176 34.5246L22.0176 23.2074C22.6432 22.9863 23.3164 22.866 24.0176 22.866C24.7189 22.866 25.3921 22.9863 26.0176 23.2074ZM22.0176 37.643C22.6609 37.789 23.3302 37.866 24.0176 37.866C24.705 37.866 25.3744 37.789 26.0176 37.643L26.0176 38.866C26.0176 39.9706 25.1222 40.866 24.0176 40.866C22.9131 40.866 22.0176 39.9706 22.0176 38.866L22.0176 37.643Z" fill="#4FE883"/>
</svg>
