<svg width="48" height="48" viewBox="0 0 48 48" fill="none" xmlns="http://www.w3.org/2000/svg">
<path fill-rule="evenodd" clip-rule="evenodd" d="M11 7C8.79086 7 7 8.79086 7 11V37C7 39.2091 8.79086 41 11 41H37C39.2091 41 41 39.2091 41 37V11C41 8.79086 39.2091 7 37 7H11ZM21.19 24.23C20.85 24.57 20.68 25 20.68 25.52V27.8C20.68 28.32 20.85 28.76 21.19 29.12C21.53 29.46 21.96 29.63 22.48 29.63C23 29.63 23.43 29.46 23.77 29.12C24.11 28.76 24.28 28.32 24.28 27.8V26.69C24.28 26.65 24.29 26.62 24.31 26.6L24.43 26.54C25.29 26.4 26.08 26.17 26.8 25.85C27.54 25.51 28.18 25.07 28.72 24.53C29.28 23.97 29.71 23.31 30.01 22.55C30.31 21.77 30.46 20.88 30.46 19.88C30.46 18.54 30.13 17.34 29.47 16.28C28.81 15.22 27.92 14.38 26.8 13.76C25.7 13.12 24.46 12.8 23.08 12.8C21.98 12.8 20.94 13.01 19.96 13.43C19 13.83 18.16 14.4 17.44 15.14C17.02 15.56 16.83 16.02 16.87 16.52C16.91 17.02 17.17 17.45 17.65 17.81C18.11 18.15 18.56 18.26 19 18.14C19.46 18 19.85 17.79 20.17 17.51C20.57 17.17 21.01 16.9 21.49 16.7C21.99 16.5 22.52 16.4 23.08 16.4C23.8 16.4 24.44 16.55 25 16.85C25.58 17.15 26.03 17.56 26.35 18.08C26.69 18.6 26.86 19.2 26.86 19.88C26.86 20.8 26.66 21.54 26.26 22.1C25.88 22.66 25.36 23.07 24.7 23.33C24.04 23.57 23.3 23.69 22.48 23.69C21.96 23.69 21.53 23.87 21.19 24.23ZM20.98 34.55C21.3 34.85 21.75 35 22.33 35H22.72C23.3 35 23.74 34.85 24.04 34.55C24.36 34.23 24.52 33.78 24.52 33.2V32.69C24.52 32.11 24.36 31.67 24.04 31.37C23.74 31.05 23.3 30.89 22.72 30.89H22.33C21.75 30.89 21.3 31.05 20.98 31.37C20.68 31.67 20.53 32.11 20.53 32.69V33.2C20.53 33.78 20.68 34.23 20.98 34.55Z" fill="#808080"/>
</svg>
