<svg width="48" height="48" viewBox="0 0 48 48" fill="none" xmlns="http://www.w3.org/2000/svg">
<path fill-rule="evenodd" clip-rule="evenodd" d="M16.0223 10C13.907 10 12.1921 11.7148 12.1921 13.8302V19.8491C12.1921 20.1512 11.9471 20.3962 11.645 20.3962H9.45627C7.34092 20.3962 5.62608 22.1111 5.62608 24.2264V30.7925C5.62608 32.0989 6.28015 33.2525 7.27868 33.9438C7.27132 33.8062 7.2676 33.6677 7.2676 33.5283C7.2676 29.2976 10.6973 25.8679 14.928 25.8679C19.1587 25.8679 22.5884 29.2976 22.5884 33.5283C22.5884 33.8998 22.5619 34.2652 22.5108 34.6226H24.8546C24.8035 34.2652 24.777 33.8998 24.777 33.5283C24.777 29.2976 28.2067 25.8679 32.4374 25.8679C36.6681 25.8679 40.0978 29.2976 40.0978 33.5283C40.0978 33.8886 40.0729 34.2431 40.0248 34.5902C42.6957 34.2456 44.2418 31.2256 42.7995 28.8218L38.8599 22.2558C38.1677 21.1021 36.921 20.3962 35.5756 20.3962H34.0789C33.7767 20.3962 33.5317 20.1512 33.5317 19.8491V13.8302C33.5317 11.7148 31.8169 10 29.7016 10H16.0223ZM23.6827 12.7359C22.4739 12.7359 21.494 13.7158 21.494 14.9245V18.2076C21.494 19.4163 22.4739 20.3962 23.6827 20.3962H29.1544C30.3632 20.3962 31.3431 19.4163 31.3431 18.2076V14.9245C31.3431 13.7158 30.3632 12.7359 29.1544 12.7359H23.6827Z" fill="#DD5555"/>
<path opacity="0.8" fill-rule="evenodd" clip-rule="evenodd" d="M14.928 39C17.9499 39 20.3997 36.5503 20.3997 33.5283C20.3997 30.5064 17.9499 28.0566 14.928 28.0566C11.906 28.0566 9.45627 30.5064 9.45627 33.5283C9.45627 36.5503 11.906 39 14.928 39ZM32.4374 39C35.4593 39 37.9091 36.5503 37.9091 33.5283C37.9091 30.5064 35.4593 28.0566 32.4374 28.0566C29.4155 28.0566 26.9657 30.5064 26.9657 33.5283C26.9657 36.5503 29.4155 39 32.4374 39Z" fill="#DD5555"/>
</svg>
