<svg width="44" height="51" viewBox="0 0 44 51" fill="none" xmlns="http://www.w3.org/2000/svg">
<path d="M43.875 33.0625C43.875 34.5273 43.1914 35.6992 42.3125 36.6758V44.5859C43.1914 45.1719 43.875 46.1484 43.875 47.2227C43.875 48.8828 42.4102 50.25 40.75 50.25H9.5C4.22656 50.25 0.125 46.1484 0.125 40.875V9.625C0.125 4.44922 4.22656 0.25 9.5 0.25H39.1875C41.7266 0.25 43.875 2.39844 43.875 4.9375V33.0625ZM14.0898 12.75C13.3086 12.75 12.625 13.5312 12.625 14.3125C12.625 15.1914 13.3086 15.875 14.0898 15.875H32.9375C33.7188 15.875 34.5 15.1914 34.5 14.3125C34.5 13.5312 33.7188 12.75 32.8398 12.75H14.0898ZM14.0898 19C13.3086 19 12.625 19.7812 12.625 20.5625C12.625 21.4414 13.3086 22.125 14.0898 22.125H32.9375C33.7188 22.125 34.5 21.4414 34.5 20.5625C34.5 19.7812 33.7188 19 32.8398 19H14.0898ZM37.625 44V37.75H9.5C7.74219 37.75 6.375 39.2148 6.375 40.875C6.375 42.6328 7.74219 44 9.5 44H37.625Z" fill="white"/>
</svg>
