<svg width="50" height="51" viewBox="0 0 50 51" fill="none" xmlns="http://www.w3.org/2000/svg">
<path d="M22.8516 0.835938C24.2188 0.347656 25.6836 0.347656 27.0508 0.835938L45.8008 7.57422C48.2422 8.45312 50 10.7969 50 13.4336V37.1641C50 39.8008 48.2422 42.1445 45.8008 43.0234L27.0508 49.7617C25.6836 50.25 24.2188 50.25 22.8516 49.7617L4.10156 43.0234C1.66016 42.1445 0 39.8008 0 37.1641V13.4336C0 10.7969 1.66016 8.45312 4.10156 7.57422L22.8516 0.835938ZM25 6.69531L8.00781 12.75L25 18.8047L41.8945 12.75L25 6.69531ZM28.125 42.7305L43.75 37.1641V18.8047L28.125 24.3711V42.7305Z" fill="white"/>
</svg>
