<svg width="60" height="45" viewBox="0 0 60 45" fill="none" xmlns="http://www.w3.org/2000/svg">
<path d="M49.9219 4.08594C56.3672 13.6562 59.5898 24.3984 58.418 36.8008C58.418 36.8008 58.418 36.8984 58.3203 36.8984C54.0234 40.1211 49.1406 42.5625 43.9648 44.125C43.8672 44.2227 43.8672 44.125 43.7695 44.125C42.6953 42.5625 41.7188 41 40.8398 39.3398C40.8398 39.2422 40.8398 39.1445 40.9375 39.0469C42.5 38.4609 43.9648 37.7773 45.4297 36.8984C45.5273 36.8984 45.5273 36.7031 45.4297 36.6055C45.1367 36.4102 44.8438 36.2148 44.5508 35.9219C44.4531 35.9219 44.4531 35.9219 44.3555 35.9219C35.0781 40.2188 24.9219 40.2188 15.5469 35.9219C15.4492 35.9219 15.3516 35.9219 15.3516 35.9219C15.0586 36.2148 14.7656 36.4102 14.4727 36.6055C14.2773 36.7031 14.375 36.8984 14.4727 36.8984C15.8398 37.7773 17.4023 38.4609 18.9648 39.0469C19.0625 39.1445 19.0625 39.2422 19.0625 39.3398C18.1836 41 17.207 42.5625 16.1328 44.125C16.0352 44.125 15.9375 44.2227 15.9375 44.125C10.7617 42.5625 5.87891 40.1211 1.58203 36.8984C1.48438 36.8984 1.48438 36.8008 1.48438 36.8008C0.507812 26.0586 2.55859 15.2188 9.98047 4.08594C9.98047 4.08594 9.98047 4.08594 10.0781 4.08594C13.7891 2.32812 17.6953 1.15625 21.6992 0.472656C21.7969 0.375 21.8945 0.472656 21.8945 0.472656C22.4805 1.44922 22.9688 2.52344 23.3594 3.5C27.7539 2.81641 32.1484 2.81641 36.543 3.5C36.9336 2.52344 37.4219 1.44922 38.0078 0.472656C38.0078 0.472656 38.1055 0.375 38.2031 0.472656C42.207 1.15625 46.1133 2.32812 49.8242 4.08594C49.9219 4.08594 49.9219 4.08594 49.9219 4.08594ZM20.4297 30.2578C23.2617 30.2578 25.6055 27.6211 25.6055 24.4961C25.6055 21.2734 23.3594 18.7344 20.4297 18.7344C17.5977 18.7344 15.2539 21.2734 15.2539 24.4961C15.2539 27.6211 17.5977 30.2578 20.4297 30.2578ZM39.4727 30.2578C42.4023 30.2578 44.6484 27.6211 44.6484 24.4961C44.7461 21.2734 42.4023 18.7344 39.4727 18.7344C36.6406 18.7344 34.3945 21.2734 34.3945 24.4961C34.3945 27.6211 36.6406 30.2578 39.4727 30.2578Z" fill="white"/>
</svg>
