<svg width="50" height="48" viewBox="0 0 50 48" fill="none" xmlns="http://www.w3.org/2000/svg">
<path d="M16.8945 38.1172C16.8945 37.9219 16.6992 37.7266 16.4062 37.7266C16.1133 37.7266 15.918 37.9219 15.918 38.1172C15.918 38.3125 16.1133 38.5078 16.4062 38.4102C16.6992 38.4102 16.8945 38.3125 16.8945 38.1172ZM13.8672 37.6289C13.9648 37.4336 14.2578 37.3359 14.5508 37.4336C14.8438 37.5312 14.9414 37.7266 14.9414 37.9219C14.8438 38.1172 14.5508 38.2148 14.3555 38.1172C14.0625 38.1172 13.8672 37.8242 13.8672 37.6289ZM18.2617 37.5312C18.457 37.4336 18.75 37.6289 18.75 37.8242C18.8477 38.0195 18.6523 38.1172 18.3594 38.2148C18.0664 38.3125 17.7734 38.2148 17.7734 38.0195C17.7734 37.7266 17.9688 37.5312 18.2617 37.5312ZM24.6094 0.03125C38.1836 0.03125 49.2188 10.3828 49.2188 23.8594C49.2188 34.6992 42.5781 43.9766 32.8125 47.1992C31.543 47.4922 31.0547 46.7109 31.0547 46.0273C31.0547 45.2461 31.1523 41.1445 31.1523 37.9219C31.1523 35.5781 30.3711 34.1133 29.4922 33.332C34.9609 32.7461 40.7227 31.9648 40.7227 22.5898C40.7227 19.8555 39.7461 18.5859 38.1836 16.8281C38.3789 16.1445 39.2578 13.6055 37.8906 10.1875C35.8398 9.50391 31.1523 12.8242 31.1523 12.8242C29.1992 12.2383 27.1484 12.043 25 12.043C22.9492 12.043 20.8984 12.2383 18.9453 12.8242C18.9453 12.8242 14.1602 9.60156 12.207 10.1875C10.8398 13.6055 11.6211 16.1445 11.9141 16.8281C10.3516 18.5859 9.57031 19.8555 9.57031 22.5898C9.57031 31.9648 15.1367 32.7461 20.6055 33.332C19.8242 34.0156 19.2383 35.0898 19.043 36.6523C17.5781 37.3359 14.0625 38.4102 11.9141 34.6016C10.5469 32.2578 8.10547 32.0625 8.10547 32.0625C5.76172 32.0625 8.00781 33.625 8.00781 33.625C9.57031 34.3086 10.6445 37.1406 10.6445 37.1406C12.1094 41.5352 18.9453 40.0703 18.9453 40.0703C18.9453 42.1211 18.9453 45.4414 18.9453 46.125C18.9453 46.7109 18.5547 47.4922 17.2852 47.2969C7.51953 43.9766 0.78125 34.6992 0.78125 23.8594C0.78125 10.3828 11.1328 0.03125 24.6094 0.03125ZM10.2539 33.7227C10.3516 33.625 10.5469 33.7227 10.7422 33.8203C10.9375 34.0156 10.9375 34.3086 10.8398 34.4062C10.6445 34.5039 10.4492 34.4062 10.2539 34.3086C10.1562 34.1133 10.0586 33.8203 10.2539 33.7227ZM9.17969 32.9414C9.27734 32.8438 9.375 32.8438 9.57031 32.9414C9.76562 33.0391 9.86328 33.1367 9.86328 33.2344C9.76562 33.4297 9.57031 33.4297 9.375 33.332C9.17969 33.2344 9.08203 33.1367 9.17969 32.9414ZM12.3047 36.457C12.5 36.2617 12.793 36.3594 12.9883 36.5547C13.1836 36.75 13.1836 37.043 13.0859 37.1406C12.9883 37.3359 12.6953 37.2383 12.5 37.043C12.207 36.8477 12.207 36.5547 12.3047 36.457ZM11.2305 34.9922C11.4258 34.8945 11.6211 34.9922 11.8164 35.1875C11.9141 35.3828 11.9141 35.6758 11.8164 35.7734C11.6211 35.8711 11.4258 35.7734 11.2305 35.5781C11.0352 35.3828 11.0352 35.0898 11.2305 34.9922Z" fill="white"/>
</svg>
