<svg width="58" height="45" viewBox="0 0 58 45" fill="none" xmlns="http://www.w3.org/2000/svg">
<path d="M56.9297 24.6914C57.0273 25.1797 57.125 25.668 57.0273 26.1562V33.0898C57.0273 39.1445 52.0469 44.125 45.7969 44.125H42.1836C36.3242 44.125 31.4414 39.6328 30.9531 33.8711L30.6602 30.0625H27.2422L26.9492 33.8711C26.4609 39.6328 21.5781 44.125 15.7188 44.125H12.1055C5.85547 44.125 0.875 39.1445 0.875 33.0898V26.1562C0.875 25.668 0.875 25.1797 0.972656 24.6914L5.46484 6.91797C6.05078 4.57422 7.51562 2.62109 9.66406 1.44922C11.7148 0.375 14.2539 0.0820312 16.5 0.863281L17.9648 1.35156C18.8438 1.64453 19.2344 2.52344 18.9414 3.30469L18.4531 4.76953C18.2578 5.64844 17.2812 6.03906 16.5 5.84375L15.2305 5.35547C14.1562 5.0625 12.9844 5.0625 12.0078 5.55078C10.9336 6.03906 10.25 6.91797 9.95703 8.08984L6.24609 23.1289C8.39453 22.4453 11.1289 21.8594 14.1562 21.8594C17.5742 21.8594 21.3828 22.543 25.3867 24.4961H32.5156C36.6172 22.543 40.3281 21.8594 43.7461 21.8594C46.7734 21.8594 49.5078 22.4453 51.6562 23.1289L47.9453 8.08984C47.6523 6.91797 46.9688 6.03906 45.8945 5.55078C44.918 5.0625 43.7461 5.0625 42.6719 5.35547L41.4023 5.84375C40.6211 6.03906 39.6445 5.64844 39.4492 4.76953L38.9609 3.30469C38.668 2.52344 39.0586 1.64453 39.9375 1.35156L41.4023 0.863281C43.7461 0.0820312 46.1875 0.375 48.2383 1.44922C50.3867 2.62109 51.8516 4.57422 52.4375 6.91797L56.9297 24.6914ZM20.6992 33.3828L20.9922 29.3789C18.7461 28.5 16.5 28.1094 14.1562 28.1094C11.3242 28.1094 8.88281 28.793 7.125 29.3789V33.0898C7.125 35.7266 9.37109 37.875 12.1055 37.875H15.7188C18.3555 37.875 20.5039 35.9219 20.6992 33.3828ZM50.875 33.0898H50.7773V29.3789C49.0195 28.793 46.5781 28.1094 43.7461 28.1094C41.4023 28.1094 39.1562 28.5 36.9102 29.3789L37.2031 33.3828C37.3984 35.9219 39.6445 37.875 42.1836 37.875H45.7969C48.6289 37.875 50.875 35.7266 50.875 33.0898Z" fill="white"/>
</svg>
