<svg width="64" height="51" viewBox="0 0 64 51" fill="none" xmlns="http://www.w3.org/2000/svg">
<path d="M31.9023 31.5C26.3359 31.5 21.7461 27.0078 21.8438 21.3438C21.8438 15.7773 26.3359 11.1875 31.9023 11.1875C37.4688 11.1875 42.0586 15.7773 42.0586 21.3438C42.0586 27.0078 37.5664 31.5 31.9023 31.5ZM36.7852 34.625C44.5 34.625 50.75 40.4844 50.75 47.7109C50.75 49.1758 49.4805 50.25 47.918 50.25H15.9844C14.4219 50.25 13.25 49.1758 13.25 47.7109C13.25 40.4844 19.4023 34.625 27.1172 34.625H36.7852ZM50.75 15.875C46.3555 15.875 42.9375 12.457 42.9375 8.0625C42.9375 3.76562 46.3555 0.25 50.75 0.25C55.0469 0.25 58.5625 3.76562 58.5625 8.0625C58.5625 12.457 55.0469 15.875 50.75 15.875ZM18.6211 21.3438C18.6211 24.6641 19.8906 27.6914 21.9414 29.9375H2.41016C1.43359 29.9375 0.75 29.1562 0.75 28.1797C0.75 23.1016 4.55859 19 9.34375 19H15.3008C16.5703 19 17.7422 19.293 18.8164 19.8789C18.7188 20.3672 18.6211 20.8555 18.6211 21.3438ZM13.25 15.875C8.85547 15.875 5.4375 12.457 5.4375 8.0625C5.4375 3.76562 8.85547 0.25 13.25 0.25C17.5469 0.25 21.0625 3.76562 21.0625 8.0625C21.0625 12.457 17.5469 15.875 13.25 15.875ZM54.5586 19C59.3438 19 63.25 23.1016 63.25 28.1797C63.25 29.1562 62.4688 29.9375 61.4922 29.9375H41.9609C44.0117 27.6914 45.1836 24.6641 45.1836 21.3438C45.1836 20.8555 45.0859 20.3672 45.0859 19.8789C46.1602 19.3906 47.332 19 48.6016 19H54.5586Z" fill="white"/>
</svg>
