<svg width="24" height="26" viewBox="0 0 24 26" fill="none" xmlns="http://www.w3.org/2000/svg">
<path d="M12.3904 8.93111L16.0463 11.0466C16.2032 11.1373 16.3335 11.2678 16.4241 11.4249C16.5147 11.582 16.5624 11.7602 16.5624 11.9416V16.1756C16.5623 16.357 16.5146 16.5351 16.424 16.6921C16.3334 16.8491 16.2031 16.9795 16.0463 17.0702L12.3904 19.1861C12.2334 19.2768 12.0554 19.3246 11.8742 19.3246C11.693 19.3246 11.515 19.2768 11.3581 19.1861L7.70217 17.0702C7.54534 16.9795 7.41509 16.8491 7.3245 16.6921C7.2339 16.5351 7.18615 16.357 7.18604 16.1756V11.9416C7.18608 11.7602 7.23379 11.582 7.32439 11.4249C7.41499 11.2678 7.54528 11.1373 7.70217 11.0466L11.3581 8.93111C11.515 8.84039 11.693 8.79262 11.8742 8.79262C12.0554 8.79262 12.2334 8.84039 12.3904 8.93111Z" fill="#F6F6F6"/>
<path d="M11.4839 5.22097L6.34839 8.19527C6.19038 8.28682 6.01096 8.33477 5.82841 8.33424C5.64586 8.33372 5.46671 8.28472 5.30924 8.19226L2.99267 6.83216C2.83695 6.74066 2.70792 6.60986 2.61846 6.45282C2.529 6.29577 2.48224 6.11798 2.48285 5.93719C2.48346 5.7564 2.53142 5.57893 2.62193 5.42249C2.71245 5.26606 2.84236 5.13613 2.99869 5.04569L11.4839 0.138481C11.6408 0.0477606 11.8188 0 12 0C12.1812 0 12.3592 0.0477606 12.5162 0.138481L21.0018 5.04569C21.1582 5.13611 21.2882 5.26604 21.3788 5.42252C21.4694 5.579 21.5174 5.75654 21.518 5.9374C21.5186 6.11827 21.4718 6.29613 21.3823 6.45322C21.2928 6.6103 21.1636 6.74112 21.0078 6.83259L18.6921 8.19183C18.5347 8.28428 18.3557 8.3333 18.1732 8.3339C17.9907 8.33451 17.8114 8.28667 17.6534 8.19527L12.5162 5.22097C12.3592 5.13025 12.1812 5.08249 12 5.08249C11.8188 5.08249 11.6408 5.13025 11.4839 5.22097Z" fill="#F6F6F6"/>
<path d="M19.6559 11.6361V17.5881C19.6559 17.77 19.6079 17.9488 19.5169 18.1062C19.4258 18.2637 19.2948 18.3943 19.1372 18.4848L14.024 21.4207C13.8664 21.5113 13.7354 21.6418 13.6444 21.7993C13.5533 21.9567 13.5053 22.1355 13.5053 22.3174V24.9666C13.5054 25.148 13.5531 25.3262 13.6437 25.4833C13.7343 25.6404 13.8646 25.7709 14.0215 25.8616C14.1785 25.9523 14.3565 26 14.5376 26C14.7188 26 14.8968 25.9522 15.0537 25.8615L23.4839 20.9832C23.6408 20.8925 23.7711 20.762 23.8617 20.6049C23.9523 20.4478 24 20.2696 24 20.0882V10.3251C24.0002 10.1435 23.9526 9.96513 23.8621 9.80785C23.7716 9.65056 23.6413 9.51992 23.4843 9.42907C23.3274 9.33822 23.1493 9.29037 22.968 9.29032C22.7867 9.29027 22.6086 9.33803 22.4516 9.4288L20.172 10.7398C20.0149 10.8306 19.8845 10.9613 19.7939 11.1186C19.7033 11.276 19.6557 11.4544 19.6559 11.6361Z" fill="#F6F6F6"/>
<path d="M4.34411 11.6361V17.5881C4.3441 17.77 4.39206 17.9488 4.48314 18.1062C4.57422 18.2637 4.70519 18.3943 4.86282 18.4848L9.97597 21.4207C10.1336 21.5113 10.2646 21.6418 10.3556 21.7993C10.4467 21.9567 10.4947 22.1355 10.4947 22.3174V24.9666C10.4946 25.148 10.4469 25.3262 10.3563 25.4833C10.2657 25.6404 10.1354 25.7709 9.97846 25.8616C9.82154 25.9523 9.64355 26 9.46237 26C9.28118 26 9.10319 25.9522 8.94628 25.8615L0.516132 20.9832C0.359238 20.8925 0.228945 20.762 0.138347 20.6049C0.0477489 20.4478 3.53768e-05 20.2696 5.78182e-07 20.0882V10.3251C-0.000191275 10.1435 0.047366 9.96513 0.137888 9.80785C0.22841 9.65056 0.358703 9.51992 0.515659 9.42907C0.672615 9.33822 0.850698 9.29037 1.03199 9.29032C1.21328 9.29027 1.39139 9.33803 1.5484 9.4288L3.82798 10.7398C3.98506 10.8306 4.11548 10.9613 4.20609 11.1186C4.29669 11.276 4.3443 11.4544 4.34411 11.6361Z" fill="#F6F6F6"/>
</svg>
