<svg id="LogoLayer" xmlns="http://www.w3.org/2000/svg" viewBox="0 0 558 603.73"><defs><style>.cls-1{fill:#ffffff;}</style></defs><g id="Logo"><path class="cls-1" d="M291,204.23l85,49.12a24,24,0,0,1,12,20.78v98.31a24,24,0,0,1-12,20.77l-85,49.13a24,24,0,0,1-24,0l-85-49.13a24,24,0,0,1-12-20.77V274.13a24,24,0,0,1,12-20.78l85-49.12A24,24,0,0,1,291,204.23Z"/><path class="cls-1" d="M267,121.23,147.6,190.29a24,24,0,0,1-24.16-.07L69.58,158.64a24,24,0,0,1,.14-41.48L267,3.22a24,24,0,0,1,24,0L488.29,117.16a24,24,0,0,1,.14,41.49l-53.84,31.56a24,24,0,0,1-24.15.08L291,121.23A24,24,0,0,0,267,121.23Z"/><path class="cls-1" d="M457,270.18v138.2a24,24,0,0,1-12.06,20.82L326.06,497.37A24,24,0,0,0,314,518.19V579.7a24,24,0,0,0,36,20.78L546,487.21a24,24,0,0,0,12-20.78V239.74a24,24,0,0,0-36-20.81l-53,30.44A24,24,0,0,0,457,270.18Z"/><path class="cls-1" d="M101,270.18v138.2a24,24,0,0,0,12.06,20.82l118.88,68.17A24,24,0,0,1,244,518.19V579.7a24,24,0,0,1-36,20.78L12,487.21A24,24,0,0,1,0,466.43V239.74a24,24,0,0,1,36-20.81l53,30.44A24,24,0,0,1,101,270.18Z"/></g></svg>
